<svg width="787" height="373" viewBox="0 0 787 373" fill="none" xmlns="http://www.w3.org/2000/svg">
<g clip-path="url(#clip0_362_549)">
<rect width="787" height="379" rx="8" fill="#C4C4C4"/>
<rect width="787" height="379" rx="8" fill="black" fill-opacity="0.2"/>
<rect x="806" y="423" width="825" height="466" transform="rotate(180 806 423)" fill="url(#paint0_linear_362_549)"/>
<g filter="url(#filter0_d_362_549)">
<path d="M220 107C220 102.582 223.582 99 228 99H540C544.418 99 548 102.582 548 107V139C548 143.418 544.418 147 540 147H228C223.582 147 220 143.418 220 139V107Z" fill="white" shape-rendering="crispEdges"/>
<path d="M240.943 121.148H239.17C239.102 120.769 238.975 120.436 238.79 120.148C238.604 119.86 238.377 119.616 238.108 119.415C237.839 119.214 237.538 119.062 237.205 118.96C236.875 118.858 236.525 118.807 236.153 118.807C235.483 118.807 234.883 118.975 234.352 119.312C233.826 119.65 233.409 120.144 233.102 120.795C232.799 121.447 232.648 122.242 232.648 123.182C232.648 124.129 232.799 124.928 233.102 125.58C233.409 126.231 233.828 126.723 234.358 127.057C234.888 127.39 235.485 127.557 236.148 127.557C236.515 127.557 236.864 127.508 237.193 127.409C237.527 127.307 237.828 127.157 238.097 126.96C238.366 126.763 238.593 126.523 238.778 126.239C238.968 125.951 239.098 125.621 239.17 125.25L240.943 125.256C240.848 125.828 240.665 126.354 240.392 126.835C240.123 127.312 239.777 127.725 239.352 128.074C238.932 128.419 238.451 128.686 237.909 128.875C237.367 129.064 236.777 129.159 236.136 129.159C235.129 129.159 234.231 128.92 233.443 128.443C232.655 127.962 232.034 127.275 231.58 126.381C231.129 125.487 230.903 124.42 230.903 123.182C230.903 121.939 231.131 120.873 231.585 119.983C232.04 119.089 232.661 118.403 233.449 117.926C234.237 117.445 235.133 117.205 236.136 117.205C236.754 117.205 237.33 117.294 237.864 117.472C238.402 117.646 238.884 117.903 239.312 118.244C239.741 118.581 240.095 118.994 240.375 119.483C240.655 119.968 240.845 120.523 240.943 121.148ZM244.607 117.364V129H242.908V117.364H244.607ZM250.653 129.176C249.794 129.176 249.053 128.992 248.432 128.625C247.814 128.254 247.337 127.733 247 127.062C246.667 126.388 246.5 125.598 246.5 124.693C246.5 123.799 246.667 123.011 247 122.33C247.337 121.648 247.807 121.116 248.409 120.733C249.015 120.35 249.723 120.159 250.534 120.159C251.027 120.159 251.504 120.241 251.966 120.403C252.428 120.566 252.843 120.822 253.21 121.17C253.578 121.519 253.867 121.972 254.08 122.528C254.292 123.081 254.398 123.754 254.398 124.545V125.148H247.46V123.875H252.733C252.733 123.428 252.642 123.032 252.46 122.688C252.278 122.339 252.023 122.064 251.693 121.864C251.367 121.663 250.985 121.562 250.545 121.562C250.068 121.562 249.652 121.68 249.295 121.915C248.943 122.146 248.67 122.449 248.477 122.824C248.288 123.195 248.193 123.598 248.193 124.034V125.028C248.193 125.612 248.295 126.108 248.5 126.517C248.708 126.926 248.998 127.239 249.369 127.455C249.741 127.667 250.174 127.773 250.67 127.773C250.992 127.773 251.286 127.727 251.551 127.636C251.816 127.542 252.045 127.402 252.239 127.216C252.432 127.03 252.58 126.801 252.682 126.528L254.29 126.818C254.161 127.292 253.93 127.706 253.597 128.062C253.267 128.415 252.852 128.689 252.352 128.886C251.856 129.08 251.29 129.176 250.653 129.176ZM258.822 129.193C258.269 129.193 257.769 129.091 257.322 128.886C256.875 128.678 256.521 128.377 256.26 127.983C256.002 127.589 255.874 127.106 255.874 126.534C255.874 126.042 255.968 125.636 256.158 125.318C256.347 125 256.603 124.748 256.925 124.562C257.247 124.377 257.607 124.237 258.004 124.142C258.402 124.047 258.807 123.975 259.22 123.926C259.743 123.866 260.167 123.816 260.493 123.778C260.819 123.737 261.055 123.67 261.203 123.58C261.351 123.489 261.425 123.341 261.425 123.136V123.097C261.425 122.6 261.285 122.216 261.004 121.943C260.728 121.67 260.315 121.534 259.766 121.534C259.194 121.534 258.743 121.661 258.413 121.915C258.088 122.165 257.862 122.443 257.737 122.75L256.141 122.386C256.33 121.856 256.607 121.428 256.97 121.102C257.338 120.773 257.76 120.534 258.237 120.386C258.714 120.235 259.216 120.159 259.743 120.159C260.091 120.159 260.461 120.201 260.851 120.284C261.245 120.364 261.612 120.511 261.953 120.727C262.298 120.943 262.58 121.252 262.8 121.653C263.019 122.051 263.129 122.568 263.129 123.205V129H261.47V127.807H261.402C261.292 128.027 261.127 128.242 260.908 128.455C260.688 128.667 260.406 128.843 260.061 128.983C259.716 129.123 259.304 129.193 258.822 129.193ZM259.192 127.83C259.661 127.83 260.063 127.737 260.396 127.551C260.733 127.366 260.989 127.123 261.163 126.824C261.341 126.521 261.43 126.197 261.43 125.852V124.727C261.37 124.788 261.252 124.845 261.078 124.898C260.908 124.947 260.713 124.991 260.493 125.028C260.273 125.062 260.059 125.095 259.851 125.125C259.643 125.152 259.468 125.174 259.328 125.193C258.999 125.235 258.697 125.305 258.425 125.403C258.156 125.502 257.94 125.644 257.777 125.83C257.618 126.011 257.538 126.254 257.538 126.557C257.538 126.977 257.694 127.295 258.004 127.511C258.315 127.723 258.711 127.83 259.192 127.83ZM265.392 129V120.273H267.034V121.659H267.125C267.284 121.189 267.564 120.82 267.966 120.551C268.371 120.278 268.83 120.142 269.341 120.142C269.447 120.142 269.572 120.146 269.716 120.153C269.864 120.161 269.979 120.17 270.062 120.182V121.807C269.994 121.788 269.873 121.767 269.699 121.744C269.525 121.718 269.35 121.705 269.176 121.705C268.775 121.705 268.417 121.79 268.102 121.96C267.792 122.127 267.545 122.36 267.364 122.659C267.182 122.955 267.091 123.292 267.091 123.67V129H265.392ZM273.565 129L270.997 120.273H272.753L274.463 126.682H274.548L276.264 120.273H278.02L279.724 126.653H279.81L281.509 120.273H283.264L280.702 129H278.969L277.196 122.699H277.065L275.293 129H273.565ZM287.416 129.193C286.863 129.193 286.363 129.091 285.916 128.886C285.469 128.678 285.115 128.377 284.854 127.983C284.596 127.589 284.467 127.106 284.467 126.534C284.467 126.042 284.562 125.636 284.751 125.318C284.941 125 285.196 124.748 285.518 124.562C285.84 124.377 286.2 124.237 286.598 124.142C286.996 124.047 287.401 123.975 287.814 123.926C288.337 123.866 288.761 123.816 289.087 123.778C289.412 123.737 289.649 123.67 289.797 123.58C289.945 123.489 290.018 123.341 290.018 123.136V123.097C290.018 122.6 289.878 122.216 289.598 121.943C289.321 121.67 288.909 121.534 288.359 121.534C287.787 121.534 287.337 121.661 287.007 121.915C286.681 122.165 286.456 122.443 286.331 122.75L284.734 122.386C284.924 121.856 285.2 121.428 285.564 121.102C285.931 120.773 286.354 120.534 286.831 120.386C287.308 120.235 287.81 120.159 288.337 120.159C288.685 120.159 289.054 120.201 289.445 120.284C289.839 120.364 290.206 120.511 290.547 120.727C290.892 120.943 291.174 121.252 291.393 121.653C291.613 122.051 291.723 122.568 291.723 123.205V129H290.064V127.807H289.996C289.886 128.027 289.721 128.242 289.501 128.455C289.282 128.667 289 128.843 288.655 128.983C288.31 129.123 287.897 129.193 287.416 129.193ZM287.786 127.83C288.255 127.83 288.657 127.737 288.99 127.551C289.327 127.366 289.583 127.123 289.757 126.824C289.935 126.521 290.024 126.197 290.024 125.852V124.727C289.964 124.788 289.846 124.845 289.672 124.898C289.501 124.947 289.306 124.991 289.087 125.028C288.867 125.062 288.653 125.095 288.445 125.125C288.236 125.152 288.062 125.174 287.922 125.193C287.592 125.235 287.291 125.305 287.018 125.403C286.75 125.502 286.534 125.644 286.371 125.83C286.212 126.011 286.132 126.254 286.132 126.557C286.132 126.977 286.287 127.295 286.598 127.511C286.909 127.723 287.304 127.83 287.786 127.83ZM298.06 120.273V121.636H293.293V120.273H298.06ZM294.571 118.182H296.27V126.438C296.27 126.767 296.319 127.015 296.418 127.182C296.516 127.345 296.643 127.456 296.798 127.517C296.957 127.574 297.13 127.602 297.315 127.602C297.452 127.602 297.571 127.593 297.673 127.574C297.776 127.555 297.855 127.54 297.912 127.528L298.219 128.932C298.12 128.97 297.98 129.008 297.798 129.045C297.616 129.087 297.389 129.11 297.116 129.114C296.67 129.121 296.253 129.042 295.866 128.875C295.48 128.708 295.168 128.451 294.929 128.102C294.69 127.754 294.571 127.316 294.571 126.79V118.182ZM303.607 129.176C302.747 129.176 302.006 128.992 301.385 128.625C300.768 128.254 300.29 127.733 299.953 127.062C299.62 126.388 299.453 125.598 299.453 124.693C299.453 123.799 299.62 123.011 299.953 122.33C300.29 121.648 300.76 121.116 301.362 120.733C301.968 120.35 302.677 120.159 303.487 120.159C303.98 120.159 304.457 120.241 304.919 120.403C305.381 120.566 305.796 120.822 306.163 121.17C306.531 121.519 306.821 121.972 307.033 122.528C307.245 123.081 307.351 123.754 307.351 124.545V125.148H300.413V123.875H305.686C305.686 123.428 305.595 123.032 305.413 122.688C305.232 122.339 304.976 122.064 304.646 121.864C304.321 121.663 303.938 121.562 303.499 121.562C303.021 121.562 302.605 121.68 302.249 121.915C301.896 122.146 301.624 122.449 301.43 122.824C301.241 123.195 301.146 123.598 301.146 124.034V125.028C301.146 125.612 301.249 126.108 301.453 126.517C301.661 126.926 301.951 127.239 302.322 127.455C302.694 127.667 303.127 127.773 303.624 127.773C303.946 127.773 304.239 127.727 304.504 127.636C304.769 127.542 304.999 127.402 305.192 127.216C305.385 127.03 305.533 126.801 305.635 126.528L307.243 126.818C307.114 127.292 306.883 127.706 306.55 128.062C306.22 128.415 305.805 128.689 305.305 128.886C304.809 129.08 304.243 129.176 303.607 129.176ZM309.236 129V120.273H310.878V121.659H310.969C311.128 121.189 311.408 120.82 311.81 120.551C312.215 120.278 312.673 120.142 313.185 120.142C313.291 120.142 313.416 120.146 313.56 120.153C313.707 120.161 313.823 120.17 313.906 120.182V121.807C313.838 121.788 313.717 121.767 313.543 121.744C313.368 121.718 313.194 121.705 313.02 121.705C312.618 121.705 312.26 121.79 311.946 121.96C311.635 122.127 311.389 122.36 311.207 122.659C311.026 122.955 310.935 123.292 310.935 123.67V129H309.236ZM319.747 129V117.364H321.503V127.489H326.776V129H319.747ZM331.182 129.193C330.629 129.193 330.129 129.091 329.682 128.886C329.235 128.678 328.881 128.377 328.619 127.983C328.362 127.589 328.233 127.106 328.233 126.534C328.233 126.042 328.328 125.636 328.517 125.318C328.706 125 328.962 124.748 329.284 124.562C329.606 124.377 329.966 124.237 330.364 124.142C330.761 124.047 331.167 123.975 331.58 123.926C332.102 123.866 332.527 123.816 332.852 123.778C333.178 123.737 333.415 123.67 333.562 123.58C333.71 123.489 333.784 123.341 333.784 123.136V123.097C333.784 122.6 333.644 122.216 333.364 121.943C333.087 121.67 332.674 121.534 332.125 121.534C331.553 121.534 331.102 121.661 330.773 121.915C330.447 122.165 330.222 122.443 330.097 122.75L328.5 122.386C328.689 121.856 328.966 121.428 329.33 121.102C329.697 120.773 330.119 120.534 330.597 120.386C331.074 120.235 331.576 120.159 332.102 120.159C332.451 120.159 332.82 120.201 333.21 120.284C333.604 120.364 333.972 120.511 334.312 120.727C334.657 120.943 334.939 121.252 335.159 121.653C335.379 122.051 335.489 122.568 335.489 123.205V129H333.83V127.807H333.761C333.652 128.027 333.487 128.242 333.267 128.455C333.047 128.667 332.765 128.843 332.42 128.983C332.076 129.123 331.663 129.193 331.182 129.193ZM331.551 127.83C332.021 127.83 332.422 127.737 332.756 127.551C333.093 127.366 333.348 127.123 333.523 126.824C333.701 126.521 333.79 126.197 333.79 125.852V124.727C333.729 124.788 333.612 124.845 333.438 124.898C333.267 124.947 333.072 124.991 332.852 125.028C332.633 125.062 332.419 125.095 332.21 125.125C332.002 125.152 331.828 125.174 331.688 125.193C331.358 125.235 331.057 125.305 330.784 125.403C330.515 125.502 330.299 125.644 330.136 125.83C329.977 126.011 329.898 126.254 329.898 126.557C329.898 126.977 330.053 127.295 330.364 127.511C330.674 127.723 331.07 127.83 331.551 127.83ZM337.751 129V120.273H339.393V121.659H339.484C339.643 121.189 339.924 120.82 340.325 120.551C340.731 120.278 341.189 120.142 341.7 120.142C341.806 120.142 341.931 120.146 342.075 120.153C342.223 120.161 342.339 120.17 342.422 120.182V121.807C342.354 121.788 342.232 121.767 342.058 121.744C341.884 121.718 341.71 121.705 341.536 121.705C341.134 121.705 340.776 121.79 340.462 121.96C340.151 122.127 339.905 122.36 339.723 122.659C339.541 122.955 339.45 123.292 339.45 123.67V129H337.751ZM347.239 132.455C346.545 132.455 345.949 132.364 345.449 132.182C344.953 132 344.547 131.759 344.233 131.46C343.919 131.161 343.684 130.833 343.528 130.477L344.989 129.875C345.091 130.042 345.227 130.218 345.398 130.403C345.572 130.593 345.807 130.754 346.102 130.886C346.402 131.019 346.786 131.085 347.256 131.085C347.9 131.085 348.432 130.928 348.852 130.614C349.273 130.303 349.483 129.807 349.483 129.125V127.409H349.375C349.273 127.595 349.125 127.801 348.932 128.028C348.742 128.256 348.481 128.453 348.148 128.619C347.814 128.786 347.381 128.869 346.847 128.869C346.157 128.869 345.536 128.708 344.983 128.386C344.434 128.061 343.998 127.581 343.676 126.949C343.358 126.312 343.199 125.53 343.199 124.602C343.199 123.674 343.356 122.879 343.67 122.216C343.989 121.553 344.424 121.045 344.977 120.693C345.53 120.337 346.157 120.159 346.858 120.159C347.4 120.159 347.837 120.25 348.17 120.432C348.504 120.61 348.763 120.818 348.949 121.057C349.138 121.295 349.284 121.506 349.386 121.688H349.511V120.273H351.176V129.193C351.176 129.943 351.002 130.559 350.653 131.04C350.305 131.521 349.833 131.877 349.239 132.108C348.648 132.339 347.981 132.455 347.239 132.455ZM347.222 127.46C347.71 127.46 348.123 127.347 348.46 127.119C348.801 126.888 349.059 126.559 349.233 126.131C349.411 125.699 349.5 125.182 349.5 124.58C349.5 123.992 349.413 123.475 349.239 123.028C349.064 122.581 348.809 122.233 348.472 121.983C348.134 121.729 347.718 121.602 347.222 121.602C346.71 121.602 346.284 121.735 345.943 122C345.602 122.261 345.345 122.617 345.17 123.068C345 123.519 344.915 124.023 344.915 124.58C344.915 125.152 345.002 125.653 345.176 126.085C345.35 126.517 345.608 126.854 345.949 127.097C346.294 127.339 346.718 127.46 347.222 127.46ZM357.131 129.176C356.313 129.176 355.598 128.989 354.989 128.614C354.379 128.239 353.905 127.714 353.568 127.04C353.231 126.366 353.062 125.578 353.062 124.676C353.062 123.771 353.231 122.979 353.568 122.301C353.905 121.623 354.379 121.097 354.989 120.722C355.598 120.347 356.313 120.159 357.131 120.159C357.949 120.159 358.663 120.347 359.273 120.722C359.883 121.097 360.356 121.623 360.693 122.301C361.03 122.979 361.199 123.771 361.199 124.676C361.199 125.578 361.03 126.366 360.693 127.04C360.356 127.714 359.883 128.239 359.273 128.614C358.663 128.989 357.949 129.176 357.131 129.176ZM357.136 127.75C357.667 127.75 358.106 127.61 358.455 127.33C358.803 127.049 359.061 126.676 359.227 126.21C359.398 125.744 359.483 125.231 359.483 124.67C359.483 124.114 359.398 123.602 359.227 123.136C359.061 122.667 358.803 122.29 358.455 122.006C358.106 121.722 357.667 121.58 357.136 121.58C356.602 121.58 356.159 121.722 355.807 122.006C355.458 122.29 355.199 122.667 355.028 123.136C354.862 123.602 354.778 124.114 354.778 124.67C354.778 125.231 354.862 125.744 355.028 126.21C355.199 126.676 355.458 127.049 355.807 127.33C356.159 127.61 356.602 127.75 357.136 127.75ZM367.466 129V117.364H371.614C372.515 117.364 373.263 117.519 373.858 117.83C374.456 118.14 374.903 118.57 375.199 119.119C375.494 119.665 375.642 120.295 375.642 121.011C375.642 121.723 375.492 122.35 375.193 122.892C374.898 123.43 374.451 123.848 373.852 124.148C373.258 124.447 372.509 124.597 371.608 124.597H368.466V123.085H371.449C372.017 123.085 372.479 123.004 372.835 122.841C373.195 122.678 373.458 122.441 373.625 122.131C373.792 121.82 373.875 121.447 373.875 121.011C373.875 120.572 373.79 120.191 373.619 119.869C373.453 119.547 373.189 119.301 372.83 119.131C372.473 118.956 372.006 118.869 371.426 118.869H369.222V129H367.466ZM373.21 123.75L376.085 129H374.085L371.267 123.75H373.21ZM380.8 129.17C380.095 129.17 379.466 128.991 378.913 128.631C378.364 128.267 377.932 127.75 377.618 127.08C377.307 126.405 377.152 125.597 377.152 124.653C377.152 123.71 377.309 122.903 377.624 122.233C377.942 121.562 378.377 121.049 378.93 120.693C379.483 120.337 380.11 120.159 380.811 120.159C381.353 120.159 381.788 120.25 382.118 120.432C382.451 120.61 382.709 120.818 382.891 121.057C383.076 121.295 383.22 121.506 383.322 121.688H383.425V117.364H385.124V129H383.464V127.642H383.322C383.22 127.828 383.072 128.04 382.879 128.278C382.69 128.517 382.429 128.725 382.095 128.903C381.762 129.081 381.33 129.17 380.8 129.17ZM381.175 127.722C381.663 127.722 382.076 127.593 382.413 127.335C382.754 127.074 383.012 126.712 383.186 126.25C383.364 125.788 383.453 125.25 383.453 124.636C383.453 124.03 383.366 123.5 383.192 123.045C383.018 122.591 382.762 122.237 382.425 121.983C382.088 121.729 381.671 121.602 381.175 121.602C380.663 121.602 380.237 121.735 379.896 122C379.555 122.265 379.298 122.627 379.124 123.085C378.953 123.544 378.868 124.061 378.868 124.636C378.868 125.22 378.955 125.744 379.129 126.21C379.304 126.676 379.561 127.045 379.902 127.318C380.247 127.587 380.671 127.722 381.175 127.722ZM389.759 127.409L389.673 128.028C389.616 128.483 389.52 128.956 389.384 129.449C389.251 129.945 389.113 130.405 388.969 130.83C388.829 131.254 388.713 131.591 388.622 131.841H387.418C387.467 131.606 387.535 131.288 387.622 130.886C387.709 130.489 387.795 130.044 387.878 129.551C387.961 129.059 388.024 128.557 388.065 128.045L388.122 127.409H389.759ZM396.341 129V117.364H398.097V127.489H403.369V129H396.341ZM407.776 129.193C407.223 129.193 406.723 129.091 406.276 128.886C405.829 128.678 405.474 128.377 405.213 127.983C404.955 127.589 404.827 127.106 404.827 126.534C404.827 126.042 404.921 125.636 405.111 125.318C405.3 125 405.556 124.748 405.878 124.562C406.2 124.377 406.56 124.237 406.957 124.142C407.355 124.047 407.76 123.975 408.173 123.926C408.696 123.866 409.12 123.816 409.446 123.778C409.772 123.737 410.009 123.67 410.156 123.58C410.304 123.489 410.378 123.341 410.378 123.136V123.097C410.378 122.6 410.238 122.216 409.957 121.943C409.681 121.67 409.268 121.534 408.719 121.534C408.147 121.534 407.696 121.661 407.366 121.915C407.041 122.165 406.815 122.443 406.69 122.75L405.094 122.386C405.283 121.856 405.56 121.428 405.923 121.102C406.291 120.773 406.713 120.534 407.19 120.386C407.668 120.235 408.17 120.159 408.696 120.159C409.045 120.159 409.414 120.201 409.804 120.284C410.198 120.364 410.565 120.511 410.906 120.727C411.251 120.943 411.533 121.252 411.753 121.653C411.973 122.051 412.082 122.568 412.082 123.205V129H410.423V127.807H410.355C410.245 128.027 410.08 128.242 409.861 128.455C409.641 128.667 409.359 128.843 409.014 128.983C408.67 129.123 408.257 129.193 407.776 129.193ZM408.145 127.83C408.615 127.83 409.016 127.737 409.349 127.551C409.687 127.366 409.942 127.123 410.116 126.824C410.295 126.521 410.384 126.197 410.384 125.852V124.727C410.323 124.788 410.205 124.845 410.031 124.898C409.861 124.947 409.666 124.991 409.446 125.028C409.226 125.062 409.012 125.095 408.804 125.125C408.596 125.152 408.421 125.174 408.281 125.193C407.952 125.235 407.651 125.305 407.378 125.403C407.109 125.502 406.893 125.644 406.73 125.83C406.571 126.011 406.491 126.254 406.491 126.557C406.491 126.977 406.647 127.295 406.957 127.511C407.268 127.723 407.664 127.83 408.145 127.83ZM414.345 129V120.273H415.987V121.659H416.078C416.237 121.189 416.518 120.82 416.919 120.551C417.324 120.278 417.783 120.142 418.294 120.142C418.4 120.142 418.525 120.146 418.669 120.153C418.817 120.161 418.932 120.17 419.016 120.182V121.807C418.947 121.788 418.826 121.767 418.652 121.744C418.478 121.718 418.304 121.705 418.129 121.705C417.728 121.705 417.37 121.79 417.055 121.96C416.745 122.127 416.499 122.36 416.317 122.659C416.135 122.955 416.044 123.292 416.044 123.67V129H414.345ZM423.832 132.455C423.139 132.455 422.543 132.364 422.043 132.182C421.546 132 421.141 131.759 420.827 131.46C420.512 131.161 420.277 130.833 420.122 130.477L421.582 129.875C421.685 130.042 421.821 130.218 421.991 130.403C422.166 130.593 422.401 130.754 422.696 130.886C422.995 131.019 423.38 131.085 423.849 131.085C424.493 131.085 425.026 130.928 425.446 130.614C425.866 130.303 426.077 129.807 426.077 129.125V127.409H425.969C425.866 127.595 425.719 127.801 425.526 128.028C425.336 128.256 425.075 128.453 424.741 128.619C424.408 128.786 423.974 128.869 423.44 128.869C422.751 128.869 422.13 128.708 421.577 128.386C421.027 128.061 420.592 127.581 420.27 126.949C419.952 126.312 419.793 125.53 419.793 124.602C419.793 123.674 419.95 122.879 420.264 122.216C420.582 121.553 421.018 121.045 421.571 120.693C422.124 120.337 422.751 120.159 423.452 120.159C423.993 120.159 424.431 120.25 424.764 120.432C425.098 120.61 425.357 120.818 425.543 121.057C425.732 121.295 425.878 121.506 425.98 121.688H426.105V120.273H427.77V129.193C427.77 129.943 427.596 130.559 427.247 131.04C426.899 131.521 426.427 131.877 425.832 132.108C425.241 132.339 424.575 132.455 423.832 132.455ZM423.815 127.46C424.304 127.46 424.717 127.347 425.054 127.119C425.395 126.888 425.652 126.559 425.827 126.131C426.005 125.699 426.094 125.182 426.094 124.58C426.094 123.992 426.007 123.475 425.832 123.028C425.658 122.581 425.402 122.233 425.065 121.983C424.728 121.729 424.312 121.602 423.815 121.602C423.304 121.602 422.878 121.735 422.537 122C422.196 122.261 421.938 122.617 421.764 123.068C421.594 123.519 421.509 124.023 421.509 124.58C421.509 125.152 421.596 125.653 421.77 126.085C421.944 126.517 422.202 126.854 422.543 127.097C422.887 127.339 423.312 127.46 423.815 127.46ZM433.724 129.176C432.906 129.176 432.192 128.989 431.582 128.614C430.973 128.239 430.499 127.714 430.162 127.04C429.825 126.366 429.656 125.578 429.656 124.676C429.656 123.771 429.825 122.979 430.162 122.301C430.499 121.623 430.973 121.097 431.582 120.722C432.192 120.347 432.906 120.159 433.724 120.159C434.543 120.159 435.257 120.347 435.866 120.722C436.476 121.097 436.95 121.623 437.287 122.301C437.624 122.979 437.793 123.771 437.793 124.676C437.793 125.578 437.624 126.366 437.287 127.04C436.95 127.714 436.476 128.239 435.866 128.614C435.257 128.989 434.543 129.176 433.724 129.176ZM433.73 127.75C434.26 127.75 434.7 127.61 435.048 127.33C435.397 127.049 435.654 126.676 435.821 126.21C435.991 125.744 436.077 125.231 436.077 124.67C436.077 124.114 435.991 123.602 435.821 123.136C435.654 122.667 435.397 122.29 435.048 122.006C434.7 121.722 434.26 121.58 433.73 121.58C433.196 121.58 432.753 121.722 432.401 122.006C432.052 122.29 431.793 122.667 431.622 123.136C431.455 123.602 431.372 124.114 431.372 124.67C431.372 125.231 431.455 125.744 431.622 126.21C431.793 126.676 432.052 127.049 432.401 127.33C432.753 127.61 433.196 127.75 433.73 127.75ZM441.899 127.409L441.814 128.028C441.757 128.483 441.661 128.956 441.524 129.449C441.392 129.945 441.253 130.405 441.109 130.83C440.969 131.254 440.854 131.591 440.763 131.841H439.558C439.607 131.606 439.676 131.288 439.763 130.886C439.85 130.489 439.935 130.044 440.018 129.551C440.102 129.059 440.164 128.557 440.206 128.045L440.263 127.409H441.899ZM448.482 129V117.364H455.697V118.875H450.237V122.42H455.18V123.926H450.237V129H448.482ZM457.857 129V117.364H459.612V127.489H464.885V129H457.857Z" fill="black"/>
<rect x="482" y="112.101" width="56" height="21.7985" rx="4.71318" fill="#40F81B"/>
<path d="M493.425 119.455V126H492.435V120.445H492.396L490.83 121.468V120.522L492.463 119.455H493.425ZM497.475 126.109C496.97 126.107 496.538 125.973 496.18 125.709C495.822 125.445 495.549 125.06 495.359 124.555C495.169 124.05 495.075 123.442 495.075 122.73C495.075 122.021 495.169 121.415 495.359 120.912C495.551 120.409 495.826 120.026 496.184 119.761C496.544 119.497 496.974 119.365 497.475 119.365C497.975 119.365 498.405 119.498 498.763 119.765C499.121 120.029 499.395 120.412 499.584 120.915C499.776 121.416 499.872 122.021 499.872 122.73C499.872 123.444 499.777 124.054 499.587 124.559C499.398 125.061 499.124 125.446 498.766 125.712C498.408 125.977 497.978 126.109 497.475 126.109ZM497.475 125.255C497.918 125.255 498.264 125.039 498.513 124.607C498.765 124.174 498.891 123.549 498.891 122.73C498.891 122.187 498.833 121.728 498.718 121.353C498.605 120.976 498.442 120.69 498.229 120.496C498.018 120.3 497.767 120.202 497.475 120.202C497.034 120.202 496.688 120.42 496.436 120.854C496.185 121.289 496.058 121.914 496.056 122.73C496.056 123.276 496.112 123.737 496.225 124.114C496.34 124.489 496.503 124.774 496.714 124.968C496.925 125.159 497.179 125.255 497.475 125.255ZM509.163 122.727C509.163 123.426 509.035 124.027 508.779 124.53C508.523 125.031 508.173 125.416 507.728 125.687C507.284 125.955 506.781 126.089 506.216 126.089C505.649 126.089 505.143 125.955 504.698 125.687C504.255 125.416 503.905 125.029 503.65 124.527C503.394 124.024 503.266 123.424 503.266 122.727C503.266 122.028 503.394 121.429 503.65 120.928C503.905 120.425 504.255 120.039 504.698 119.771C505.143 119.5 505.649 119.365 506.216 119.365C506.781 119.365 507.284 119.5 507.728 119.771C508.173 120.039 508.523 120.425 508.779 120.928C509.035 121.429 509.163 122.028 509.163 122.727ZM508.185 122.727C508.185 122.195 508.098 121.746 507.926 121.382C507.755 121.015 507.521 120.738 507.223 120.551C506.926 120.361 506.591 120.266 506.216 120.266C505.839 120.266 505.502 120.361 505.206 120.551C504.91 120.738 504.675 121.015 504.503 121.382C504.332 121.746 504.247 122.195 504.247 122.727C504.247 123.26 504.332 123.71 504.503 124.076C504.675 124.44 504.91 124.717 505.206 124.907C505.502 125.094 505.839 125.188 506.216 125.188C506.591 125.188 506.926 125.094 507.223 124.907C507.521 124.717 507.755 124.44 507.926 124.076C508.098 123.71 508.185 123.26 508.185 122.727ZM512.653 121.091V121.858H509.879V121.091H512.653ZM510.64 126V120.522C510.64 120.215 510.707 119.961 510.841 119.758C510.976 119.554 511.153 119.401 511.375 119.301C511.597 119.199 511.837 119.148 512.097 119.148C512.289 119.148 512.453 119.164 512.59 119.196C512.726 119.225 512.827 119.253 512.893 119.279L512.669 120.052C512.625 120.039 512.567 120.025 512.497 120.007C512.427 119.988 512.341 119.979 512.241 119.979C512.009 119.979 511.843 120.036 511.743 120.151C511.645 120.266 511.596 120.433 511.596 120.65V126H510.64ZM515.976 121.091V121.858H513.202V121.091H515.976ZM513.962 126V120.522C513.962 120.215 514.029 119.961 514.164 119.758C514.298 119.554 514.476 119.401 514.697 119.301C514.919 119.199 515.16 119.148 515.42 119.148C515.611 119.148 515.775 119.164 515.912 119.196C516.048 119.225 516.149 119.253 516.215 119.279L515.992 120.052C515.947 120.039 515.889 120.025 515.819 120.007C515.749 119.988 515.664 119.979 515.563 119.979C515.331 119.979 515.165 120.036 515.065 120.151C514.967 120.266 514.918 120.433 514.918 120.65V126H513.962ZM518.884 126.099C518.4 126.099 517.984 125.996 517.634 125.789C517.287 125.58 517.019 125.287 516.829 124.91C516.642 124.531 516.548 124.087 516.548 123.577C516.548 123.075 516.642 122.631 516.829 122.248C517.019 121.864 517.283 121.565 517.622 121.35C517.963 121.135 518.361 121.027 518.817 121.027C519.094 121.027 519.362 121.073 519.622 121.164C519.882 121.256 520.116 121.4 520.322 121.596C520.529 121.792 520.692 122.047 520.811 122.36C520.931 122.671 520.99 123.049 520.99 123.494V123.833H517.088V123.117H520.054C520.054 122.866 520.003 122.643 519.9 122.449C519.798 122.253 519.654 122.099 519.469 121.986C519.286 121.873 519.071 121.816 518.823 121.816C518.555 121.816 518.321 121.882 518.12 122.015C517.922 122.145 517.769 122.315 517.66 122.526C517.554 122.735 517.5 122.962 517.5 123.207V123.766C517.5 124.094 517.558 124.373 517.673 124.603C517.79 124.833 517.953 125.009 518.162 125.131C518.371 125.25 518.615 125.31 518.894 125.31C519.075 125.31 519.24 125.284 519.389 125.233C519.538 125.18 519.667 125.101 519.776 124.996C519.884 124.892 519.968 124.763 520.025 124.61L520.93 124.773C520.857 125.039 520.727 125.272 520.54 125.473C520.354 125.671 520.121 125.825 519.84 125.936C519.561 126.045 519.242 126.099 518.884 126.099ZM522.051 126V121.091H522.974V121.871H523.025C523.115 121.607 523.273 121.399 523.498 121.248C523.726 121.094 523.984 121.017 524.272 121.017C524.331 121.017 524.402 121.02 524.483 121.024C524.566 121.028 524.631 121.033 524.678 121.04V121.954C524.639 121.943 524.571 121.931 524.473 121.919C524.375 121.904 524.277 121.896 524.179 121.896C523.953 121.896 523.752 121.944 523.575 122.04C523.4 122.134 523.262 122.265 523.16 122.433C523.057 122.599 523.006 122.789 523.006 123.002V126H522.051ZM529.183 122.289L528.317 122.443C528.281 122.332 528.223 122.227 528.145 122.126C528.068 122.026 527.964 121.944 527.831 121.88C527.699 121.816 527.534 121.784 527.336 121.784C527.065 121.784 526.84 121.845 526.658 121.967C526.477 122.086 526.387 122.24 526.387 122.43C526.387 122.594 526.448 122.726 526.569 122.826C526.69 122.926 526.886 123.009 527.157 123.072L527.937 123.251C528.389 123.356 528.725 123.517 528.947 123.734C529.168 123.951 529.279 124.234 529.279 124.581C529.279 124.875 529.194 125.137 529.024 125.367C528.855 125.595 528.62 125.774 528.317 125.904C528.017 126.034 527.668 126.099 527.272 126.099C526.722 126.099 526.274 125.982 525.927 125.748C525.579 125.511 525.366 125.175 525.287 124.741L526.211 124.6C526.269 124.841 526.387 125.023 526.566 125.147C526.745 125.268 526.978 125.329 527.266 125.329C527.579 125.329 527.829 125.264 528.017 125.134C528.204 125.002 528.298 124.841 528.298 124.651C528.298 124.498 528.241 124.369 528.125 124.265C528.013 124.16 527.839 124.081 527.604 124.028L526.774 123.846C526.315 123.741 525.977 123.575 525.757 123.347C525.54 123.119 525.431 122.831 525.431 122.481C525.431 122.191 525.512 121.938 525.674 121.721C525.836 121.503 526.06 121.334 526.345 121.212C526.631 121.089 526.958 121.027 527.326 121.027C527.857 121.027 528.275 121.142 528.579 121.372C528.884 121.6 529.085 121.906 529.183 122.289Z" fill="#105D00"/>
</g>
<g filter="url(#filter1_d_362_549)">
<path d="M343 171C343 166.582 346.582 163 351 163H540C544.418 163 548 166.582 548 171V203C548 207.418 544.418 211 540 211H351C346.582 211 343 207.418 343 203V171Z" fill="white" shape-rendering="crispEdges"/>
<path d="M369.057 193.273V180.545H369.872V193.273H369.057ZM371.801 184.364C371.741 183.86 371.5 183.469 371.075 183.19C370.651 182.912 370.131 182.773 369.514 182.773C369.063 182.773 368.669 182.846 368.331 182.991C367.996 183.137 367.734 183.338 367.545 183.593C367.36 183.848 367.267 184.138 367.267 184.463C367.267 184.735 367.332 184.969 367.461 185.164C367.594 185.356 367.763 185.517 367.968 185.646C368.174 185.772 368.389 185.877 368.614 185.96C368.84 186.039 369.047 186.104 369.236 186.153L370.27 186.432C370.535 186.501 370.83 186.598 371.155 186.72C371.483 186.843 371.796 187.01 372.094 187.222C372.396 187.431 372.645 187.7 372.84 188.028C373.036 188.356 373.134 188.759 373.134 189.236C373.134 189.786 372.989 190.283 372.701 190.727C372.416 191.171 371.998 191.524 371.448 191.786C370.901 192.048 370.237 192.179 369.455 192.179C368.725 192.179 368.094 192.061 367.56 191.826C367.03 191.591 366.612 191.263 366.308 190.842C366.006 190.421 365.835 189.932 365.795 189.375H367.068C367.101 189.759 367.231 190.078 367.456 190.33C367.685 190.578 367.973 190.764 368.321 190.886C368.672 191.006 369.05 191.065 369.455 191.065C369.925 191.065 370.348 190.989 370.722 190.837C371.097 190.681 371.393 190.465 371.612 190.19C371.831 189.912 371.94 189.587 371.94 189.216C371.94 188.878 371.846 188.603 371.657 188.391C371.468 188.179 371.219 188.006 370.911 187.874C370.603 187.741 370.27 187.625 369.912 187.526L368.659 187.168C367.864 186.939 367.234 186.612 366.77 186.188C366.306 185.764 366.074 185.209 366.074 184.523C366.074 183.953 366.228 183.455 366.536 183.031C366.848 182.604 367.265 182.272 367.789 182.037C368.316 181.798 368.904 181.679 369.554 181.679C370.21 181.679 370.794 181.797 371.304 182.032C371.814 182.264 372.219 182.582 372.517 182.987C372.819 183.391 372.978 183.85 372.994 184.364H371.801ZM378.164 192.139C377.58 192.139 377.055 192.023 376.588 191.791C376.12 191.559 375.746 191.241 375.464 190.837C375.182 190.432 375.028 189.972 375.002 189.455H376.195C376.241 189.915 376.45 190.296 376.821 190.598C377.196 190.896 377.643 191.045 378.164 191.045C378.581 191.045 378.952 190.948 379.277 190.752C379.605 190.557 379.862 190.288 380.048 189.947C380.237 189.602 380.331 189.213 380.331 188.778C380.331 188.334 380.233 187.938 380.038 187.59C379.846 187.239 379.58 186.962 379.242 186.76C378.904 186.558 378.518 186.455 378.084 186.452C377.772 186.448 377.453 186.496 377.124 186.596C376.796 186.692 376.526 186.816 376.314 186.969L375.161 186.83L375.777 181.818H381.067V182.912H376.811L376.453 185.915H376.513C376.722 185.749 376.984 185.612 377.298 185.502C377.613 185.393 377.941 185.338 378.283 185.338C378.906 185.338 379.461 185.487 379.948 185.786C380.439 186.08 380.823 186.485 381.102 186.999C381.383 187.512 381.524 188.099 381.524 188.759C381.524 189.408 381.378 189.988 381.087 190.499C380.798 191.006 380.401 191.407 379.894 191.702C379.387 191.993 378.81 192.139 378.164 192.139ZM386.761 192.139C386.078 192.139 385.475 192.018 384.951 191.776C384.431 191.531 384.025 191.195 383.733 190.767C383.441 190.336 383.297 189.846 383.3 189.295C383.297 188.865 383.382 188.467 383.554 188.102C383.726 187.734 383.962 187.428 384.26 187.183C384.562 186.934 384.898 186.777 385.269 186.71V186.651C384.782 186.525 384.394 186.251 384.106 185.83C383.817 185.406 383.675 184.924 383.678 184.384C383.675 183.866 383.806 183.404 384.071 182.996C384.336 182.589 384.701 182.267 385.165 182.032C385.632 181.797 386.164 181.679 386.761 181.679C387.351 181.679 387.878 181.797 388.342 182.032C388.806 182.267 389.17 182.589 389.435 182.996C389.704 183.404 389.84 183.866 389.843 184.384C389.84 184.924 389.692 185.406 389.401 185.83C389.112 186.251 388.729 186.525 388.252 186.651V186.71C388.62 186.777 388.951 186.934 389.246 187.183C389.541 187.428 389.777 187.734 389.952 188.102C390.128 188.467 390.218 188.865 390.221 189.295C390.218 189.846 390.068 190.336 389.773 190.767C389.482 191.195 389.076 191.531 388.555 191.776C388.038 192.018 387.44 192.139 386.761 192.139ZM386.761 191.045C387.221 191.045 387.619 190.971 387.954 190.822C388.289 190.673 388.547 190.462 388.729 190.19C388.912 189.919 389.004 189.6 389.008 189.236C389.004 188.851 388.905 188.512 388.71 188.217C388.514 187.922 388.247 187.69 387.909 187.521C387.574 187.352 387.192 187.267 386.761 187.267C386.326 187.267 385.939 187.352 385.597 187.521C385.259 187.69 384.992 187.922 384.797 188.217C384.605 188.512 384.51 188.851 384.513 189.236C384.51 189.6 384.598 189.919 384.777 190.19C384.959 190.462 385.219 190.673 385.558 190.822C385.896 190.971 386.297 191.045 386.761 191.045ZM386.761 186.213C387.125 186.213 387.448 186.14 387.73 185.994C388.015 185.848 388.239 185.645 388.401 185.383C388.564 185.121 388.647 184.814 388.65 184.463C388.647 184.118 388.565 183.818 388.406 183.563C388.247 183.305 388.027 183.106 387.745 182.967C387.463 182.824 387.135 182.753 386.761 182.753C386.379 182.753 386.046 182.824 385.761 182.967C385.476 183.106 385.256 183.305 385.1 183.563C384.944 183.818 384.868 184.118 384.871 184.463C384.868 184.814 384.946 185.121 385.105 185.383C385.268 185.645 385.491 185.848 385.776 185.994C386.061 186.14 386.389 186.213 386.761 186.213ZM392.687 192.08C392.442 192.08 392.231 191.992 392.055 191.816C391.88 191.64 391.792 191.43 391.792 191.185C391.792 190.939 391.88 190.729 392.055 190.553C392.231 190.378 392.442 190.29 392.687 190.29C392.932 190.29 393.143 190.378 393.318 190.553C393.494 190.729 393.582 190.939 393.582 191.185C393.582 191.347 393.54 191.496 393.457 191.632C393.378 191.768 393.27 191.877 393.134 191.96C393.002 192.04 392.853 192.08 392.687 192.08ZM398.633 192.139C397.884 192.139 397.246 191.935 396.719 191.528C396.192 191.117 395.789 190.522 395.511 189.743C395.232 188.961 395.093 188.016 395.093 186.909C395.093 185.809 395.232 184.869 395.511 184.09C395.792 183.308 396.197 182.711 396.724 182.3C397.254 181.886 397.89 181.679 398.633 181.679C399.375 181.679 400.01 181.886 400.537 182.3C401.067 182.711 401.472 183.308 401.75 184.09C402.032 184.869 402.173 185.809 402.173 186.909C402.173 188.016 402.033 188.961 401.755 189.743C401.477 190.522 401.074 191.117 400.547 191.528C400.02 191.935 399.382 192.139 398.633 192.139ZM398.633 191.045C399.375 191.045 399.952 190.687 400.363 189.972C400.774 189.256 400.979 188.235 400.979 186.909C400.979 186.027 400.885 185.277 400.696 184.657C400.51 184.037 400.242 183.565 399.891 183.24C399.543 182.915 399.123 182.753 398.633 182.753C397.897 182.753 397.322 183.116 396.908 183.842C396.493 184.564 396.286 185.587 396.286 186.909C396.286 187.791 396.379 188.54 396.565 189.156C396.75 189.773 397.017 190.242 397.365 190.563C397.716 190.885 398.139 191.045 398.633 191.045ZM404.241 181.818H405.712L409.173 190.27H409.292L412.752 181.818H414.224V192H413.07V184.264H412.971L409.789 192H408.675L405.494 184.264H405.394V192H404.241V181.818ZM420.912 186.362V187.456H416.457V186.362H420.912ZM425.959 193.273V180.545H426.775V193.273H425.959ZM428.703 184.364C428.644 183.86 428.402 183.469 427.978 183.19C427.553 182.912 427.033 182.773 426.417 182.773C425.966 182.773 425.571 182.846 425.233 182.991C424.899 183.137 424.637 183.338 424.448 183.593C424.262 183.848 424.169 184.138 424.169 184.463C424.169 184.735 424.234 184.969 424.363 185.164C424.496 185.356 424.665 185.517 424.87 185.646C425.076 185.772 425.291 185.877 425.517 185.96C425.742 186.039 425.949 186.104 426.138 186.153L427.172 186.432C427.437 186.501 427.732 186.598 428.057 186.72C428.385 186.843 428.699 187.01 428.997 187.222C429.298 187.431 429.547 187.7 429.743 188.028C429.938 188.356 430.036 188.759 430.036 189.236C430.036 189.786 429.892 190.283 429.603 190.727C429.318 191.171 428.901 191.524 428.35 191.786C427.804 192.048 427.139 192.179 426.357 192.179C425.628 192.179 424.996 192.061 424.463 191.826C423.932 191.591 423.515 191.263 423.21 190.842C422.908 190.421 422.738 189.932 422.698 189.375H423.971C424.004 189.759 424.133 190.078 424.358 190.33C424.587 190.578 424.875 190.764 425.223 190.886C425.575 191.006 425.953 191.065 426.357 191.065C426.828 191.065 427.25 190.989 427.625 190.837C427.999 190.681 428.296 190.465 428.515 190.19C428.733 189.912 428.843 189.587 428.843 189.216C428.843 188.878 428.748 188.603 428.559 188.391C428.37 188.179 428.122 188.006 427.814 187.874C427.505 187.741 427.172 187.625 426.814 187.526L425.561 187.168C424.766 186.939 424.136 186.612 423.672 186.188C423.208 185.764 422.976 185.209 422.976 184.523C422.976 183.953 423.13 183.455 423.439 183.031C423.75 182.604 424.168 182.272 424.691 182.037C425.218 181.798 425.807 181.679 426.456 181.679C427.113 181.679 427.696 181.797 428.206 182.032C428.717 182.264 429.121 182.582 429.419 182.987C429.721 183.391 429.88 183.85 429.897 184.364H428.703ZM435.066 192.139C434.483 192.139 433.957 192.023 433.49 191.791C433.023 191.559 432.648 191.241 432.366 190.837C432.085 190.432 431.93 189.972 431.904 189.455H433.097C433.144 189.915 433.352 190.296 433.724 190.598C434.098 190.896 434.546 191.045 435.066 191.045C435.483 191.045 435.855 190.948 436.18 190.752C436.508 190.557 436.765 190.288 436.95 189.947C437.139 189.602 437.233 189.213 437.233 188.778C437.233 188.334 437.136 187.938 436.94 187.59C436.748 187.239 436.483 186.962 436.145 186.76C435.807 186.558 435.421 186.455 434.986 186.452C434.675 186.448 434.355 186.496 434.027 186.596C433.699 186.692 433.429 186.816 433.216 186.969L432.063 186.83L432.68 181.818H437.969V182.912H433.714L433.356 185.915H433.415C433.624 185.749 433.886 185.612 434.201 185.502C434.516 185.393 434.844 185.338 435.185 185.338C435.808 185.338 436.363 185.487 436.851 185.786C437.341 186.08 437.726 186.485 438.004 186.999C438.286 187.512 438.427 188.099 438.427 188.759C438.427 189.408 438.281 189.988 437.989 190.499C437.701 191.006 437.303 191.407 436.796 191.702C436.289 191.993 435.712 192.139 435.066 192.139ZM443.643 181.679C444.061 181.682 444.478 181.762 444.896 181.918C445.314 182.073 445.695 182.332 446.039 182.693C446.384 183.051 446.661 183.54 446.87 184.16C447.078 184.78 447.183 185.557 447.183 186.491C447.183 187.396 447.097 188.2 446.924 188.903C446.755 189.602 446.51 190.192 446.189 190.673C445.87 191.153 445.483 191.518 445.025 191.766C444.571 192.015 444.057 192.139 443.484 192.139C442.914 192.139 442.405 192.027 441.958 191.801C441.514 191.572 441.149 191.256 440.864 190.852C440.582 190.444 440.402 189.972 440.322 189.435H441.535C441.645 189.902 441.862 190.288 442.186 190.593C442.515 190.895 442.947 191.045 443.484 191.045C444.27 191.045 444.889 190.702 445.343 190.016C445.801 189.33 446.029 188.361 446.029 187.108H445.95C445.764 187.386 445.544 187.627 445.289 187.829C445.033 188.031 444.75 188.187 444.439 188.296C444.127 188.406 443.796 188.46 443.444 188.46C442.861 188.46 442.326 188.316 441.838 188.028C441.355 187.736 440.967 187.337 440.675 186.83C440.387 186.319 440.243 185.736 440.243 185.08C440.243 184.456 440.382 183.886 440.66 183.369C440.942 182.849 441.336 182.435 441.843 182.126C442.354 181.818 442.954 181.669 443.643 181.679ZM443.643 182.773C443.225 182.773 442.849 182.877 442.515 183.086C442.183 183.291 441.92 183.57 441.724 183.921C441.532 184.269 441.436 184.655 441.436 185.08C441.436 185.504 441.529 185.89 441.714 186.238C441.903 186.583 442.16 186.858 442.485 187.063C442.813 187.265 443.186 187.366 443.603 187.366C443.918 187.366 444.212 187.305 444.483 187.183C444.755 187.057 444.992 186.886 445.194 186.67C445.4 186.452 445.56 186.205 445.676 185.93C445.792 185.651 445.85 185.361 445.85 185.06C445.85 184.662 445.754 184.289 445.562 183.941C445.373 183.593 445.111 183.311 444.777 183.096C444.445 182.88 444.067 182.773 443.643 182.773ZM449.657 192.08C449.412 192.08 449.202 191.992 449.026 191.816C448.85 191.64 448.763 191.43 448.763 191.185C448.763 190.939 448.85 190.729 449.026 190.553C449.202 190.378 449.412 190.29 449.657 190.29C449.903 190.29 450.113 190.378 450.289 190.553C450.465 190.729 450.552 190.939 450.552 191.185C450.552 191.347 450.511 191.496 450.428 191.632C450.349 191.768 450.241 191.877 450.105 191.96C449.972 192.04 449.823 192.08 449.657 192.08ZM455.663 192.139C455.246 192.133 454.828 192.053 454.41 191.901C453.993 191.748 453.612 191.491 453.267 191.13C452.922 190.765 452.645 190.273 452.437 189.653C452.228 189.03 452.123 188.248 452.123 187.307C452.123 186.405 452.208 185.607 452.377 184.911C452.546 184.211 452.791 183.623 453.113 183.146C453.434 182.665 453.822 182.3 454.276 182.052C454.733 181.803 455.249 181.679 455.822 181.679C456.392 181.679 456.899 181.793 457.344 182.022C457.791 182.247 458.156 182.562 458.437 182.967C458.719 183.371 458.901 183.837 458.984 184.364H457.771C457.658 183.906 457.44 183.527 457.115 183.225C456.79 182.924 456.359 182.773 455.822 182.773C455.033 182.773 454.412 183.116 453.958 183.802C453.507 184.488 453.28 185.451 453.277 186.69H453.356C453.542 186.409 453.762 186.168 454.018 185.969C454.276 185.767 454.561 185.612 454.873 185.502C455.184 185.393 455.514 185.338 455.862 185.338C456.445 185.338 456.979 185.484 457.463 185.776C457.947 186.064 458.335 186.463 458.626 186.974C458.918 187.481 459.064 188.062 459.064 188.719C459.064 189.348 458.923 189.925 458.641 190.449C458.359 190.969 457.963 191.384 457.453 191.692C456.946 191.997 456.349 192.146 455.663 192.139ZM455.663 191.045C456.081 191.045 456.455 190.941 456.787 190.732C457.122 190.523 457.385 190.243 457.577 189.892C457.773 189.541 457.871 189.15 457.871 188.719C457.871 188.298 457.776 187.915 457.587 187.57C457.402 187.222 457.145 186.946 456.817 186.74C456.492 186.535 456.121 186.432 455.703 186.432C455.388 186.432 455.095 186.495 454.823 186.621C454.551 186.743 454.313 186.912 454.107 187.128C453.905 187.343 453.746 187.59 453.63 187.869C453.514 188.144 453.456 188.434 453.456 188.739C453.456 189.143 453.55 189.521 453.739 189.872C453.931 190.223 454.193 190.507 454.525 190.722C454.859 190.938 455.239 191.045 455.663 191.045ZM461.198 181.818H462.669L466.13 190.27H466.249L469.709 181.818H471.181V192H470.027V184.264H469.928L466.746 192H465.632L462.451 184.264H462.351V192H461.198V181.818Z" fill="black"/>
<g clip-path="url(#clip1_362_549)">
<path d="M504 182.933C504.774 182.933 505.4 183.56 505.4 184.333C505.4 185.107 504.774 185.733 504 185.733C503.227 185.733 502.6 185.107 502.6 184.333C502.6 183.56 503.227 182.933 504 182.933ZM504 188.933C505.98 188.933 508.067 189.907 508.067 190.333V191.067H499.934V190.333C499.934 189.907 502.02 188.933 504 188.933ZM504 181.667C502.527 181.667 501.334 182.86 501.334 184.333C501.334 185.807 502.527 187 504 187C505.474 187 506.667 185.807 506.667 184.333C506.667 182.86 505.474 181.667 504 181.667ZM504 187.667C502.22 187.667 498.667 188.56 498.667 190.333V192.333H509.334V190.333C509.334 188.56 505.78 187.667 504 187.667Z" fill="black"/>
</g>
<path d="M517.054 192V191.105L520.415 187.426C520.809 186.995 521.134 186.621 521.389 186.303C521.644 185.981 521.833 185.679 521.956 185.398C522.082 185.113 522.145 184.814 522.145 184.503C522.145 184.145 522.059 183.835 521.886 183.573C521.717 183.311 521.485 183.109 521.19 182.967C520.895 182.824 520.564 182.753 520.196 182.753C519.805 182.753 519.464 182.834 519.172 182.996C518.884 183.156 518.66 183.379 518.501 183.668C518.345 183.956 518.267 184.294 518.267 184.682H517.094C517.094 184.085 517.231 183.562 517.506 183.111C517.781 182.66 518.156 182.309 518.63 182.057C519.107 181.805 519.643 181.679 520.236 181.679C520.832 181.679 521.361 181.805 521.822 182.057C522.282 182.309 522.644 182.648 522.906 183.076C523.167 183.504 523.298 183.979 523.298 184.503C523.298 184.877 523.23 185.244 523.094 185.602C522.962 185.956 522.73 186.352 522.398 186.79C522.07 187.224 521.615 187.754 521.031 188.381L518.744 190.827V190.906H523.477V192H517.054Z" fill="black"/>
</g>
<g filter="url(#filter2_d_362_549)">
<path d="M343 227C343 222.582 346.582 219 351 219H540C544.418 219 548 222.582 548 227V259C548 263.418 544.418 267 540 267H351C346.582 267 343 263.418 343 259V227Z" fill="white" shape-rendering="crispEdges"/>
<path d="M369.057 249.273V236.545H369.872V249.273H369.057ZM371.801 240.364C371.741 239.86 371.5 239.469 371.075 239.19C370.651 238.912 370.131 238.773 369.514 238.773C369.063 238.773 368.669 238.846 368.331 238.991C367.996 239.137 367.734 239.338 367.545 239.593C367.36 239.848 367.267 240.138 367.267 240.463C367.267 240.735 367.332 240.969 367.461 241.164C367.594 241.356 367.763 241.517 367.968 241.646C368.174 241.772 368.389 241.877 368.614 241.96C368.84 242.039 369.047 242.104 369.236 242.153L370.27 242.432C370.535 242.501 370.83 242.598 371.155 242.72C371.483 242.843 371.796 243.01 372.094 243.222C372.396 243.431 372.645 243.7 372.84 244.028C373.036 244.356 373.134 244.759 373.134 245.236C373.134 245.786 372.989 246.283 372.701 246.727C372.416 247.171 371.998 247.524 371.448 247.786C370.901 248.048 370.237 248.179 369.455 248.179C368.725 248.179 368.094 248.061 367.56 247.826C367.03 247.591 366.612 247.263 366.308 246.842C366.006 246.421 365.835 245.932 365.795 245.375H367.068C367.101 245.759 367.231 246.078 367.456 246.33C367.685 246.578 367.973 246.764 368.321 246.886C368.672 247.006 369.05 247.065 369.455 247.065C369.925 247.065 370.348 246.989 370.722 246.837C371.097 246.681 371.393 246.465 371.612 246.19C371.831 245.912 371.94 245.587 371.94 245.216C371.94 244.878 371.846 244.603 371.657 244.391C371.468 244.179 371.219 244.006 370.911 243.874C370.603 243.741 370.27 243.625 369.912 243.526L368.659 243.168C367.864 242.939 367.234 242.612 366.77 242.188C366.306 241.764 366.074 241.209 366.074 240.523C366.074 239.953 366.228 239.455 366.536 239.031C366.848 238.604 367.265 238.272 367.789 238.037C368.316 237.798 368.904 237.679 369.554 237.679C370.21 237.679 370.794 237.797 371.304 238.032C371.814 238.264 372.219 238.582 372.517 238.987C372.819 239.391 372.978 239.85 372.994 240.364H371.801ZM378.164 248.139C377.58 248.139 377.055 248.023 376.588 247.791C376.12 247.559 375.746 247.241 375.464 246.837C375.182 246.432 375.028 245.972 375.002 245.455H376.195C376.241 245.915 376.45 246.296 376.821 246.598C377.196 246.896 377.643 247.045 378.164 247.045C378.581 247.045 378.952 246.948 379.277 246.752C379.605 246.557 379.862 246.288 380.048 245.947C380.237 245.602 380.331 245.213 380.331 244.778C380.331 244.334 380.233 243.938 380.038 243.59C379.846 243.239 379.58 242.962 379.242 242.76C378.904 242.558 378.518 242.455 378.084 242.452C377.772 242.448 377.453 242.496 377.124 242.596C376.796 242.692 376.526 242.816 376.314 242.969L375.161 242.83L375.777 237.818H381.067V238.912H376.811L376.453 241.915H376.513C376.722 241.749 376.984 241.612 377.298 241.502C377.613 241.393 377.941 241.338 378.283 241.338C378.906 241.338 379.461 241.487 379.948 241.786C380.439 242.08 380.823 242.485 381.102 242.999C381.383 243.512 381.524 244.099 381.524 244.759C381.524 245.408 381.378 245.988 381.087 246.499C380.798 247.006 380.401 247.407 379.894 247.702C379.387 247.993 378.81 248.139 378.164 248.139ZM386.88 248.139C386.462 248.133 386.045 248.053 385.627 247.901C385.21 247.748 384.828 247.491 384.484 247.13C384.139 246.765 383.862 246.273 383.653 245.653C383.445 245.03 383.34 244.248 383.34 243.307C383.34 242.405 383.425 241.607 383.594 240.911C383.763 240.211 384.008 239.623 384.33 239.146C384.651 238.665 385.039 238.3 385.493 238.052C385.95 237.803 386.466 237.679 387.039 237.679C387.609 237.679 388.116 237.793 388.56 238.022C389.008 238.247 389.372 238.562 389.654 238.967C389.936 239.371 390.118 239.837 390.201 240.364H388.988C388.875 239.906 388.656 239.527 388.332 239.225C388.007 238.924 387.576 238.773 387.039 238.773C386.25 238.773 385.629 239.116 385.175 239.802C384.724 240.488 384.497 241.451 384.494 242.69H384.573C384.759 242.409 384.979 242.168 385.234 241.969C385.493 241.767 385.778 241.612 386.089 241.502C386.401 241.393 386.731 241.338 387.079 241.338C387.662 241.338 388.196 241.484 388.68 241.776C389.164 242.064 389.551 242.463 389.843 242.974C390.135 243.481 390.281 244.062 390.281 244.719C390.281 245.348 390.14 245.925 389.858 246.449C389.576 246.969 389.18 247.384 388.67 247.692C388.163 247.997 387.566 248.146 386.88 248.139ZM386.88 247.045C387.298 247.045 387.672 246.941 388.004 246.732C388.338 246.523 388.602 246.243 388.794 245.892C388.99 245.541 389.087 245.15 389.087 244.719C389.087 244.298 388.993 243.915 388.804 243.57C388.618 243.222 388.362 242.946 388.033 242.74C387.709 242.535 387.337 242.432 386.92 242.432C386.605 242.432 386.312 242.495 386.04 242.621C385.768 242.743 385.529 242.912 385.324 243.128C385.122 243.343 384.963 243.59 384.847 243.869C384.731 244.144 384.673 244.434 384.673 244.739C384.673 245.143 384.767 245.521 384.956 245.872C385.148 246.223 385.41 246.507 385.741 246.722C386.076 246.938 386.456 247.045 386.88 247.045ZM392.632 248.08C392.387 248.08 392.176 247.992 392.001 247.816C391.825 247.64 391.737 247.43 391.737 247.185C391.737 246.939 391.825 246.729 392.001 246.553C392.176 246.378 392.387 246.29 392.632 246.29C392.877 246.29 393.088 246.378 393.263 246.553C393.439 246.729 393.527 246.939 393.527 247.185C393.527 247.347 393.486 247.496 393.403 247.632C393.323 247.768 393.215 247.877 393.08 247.96C392.947 248.04 392.798 248.08 392.632 248.08ZM398.578 248.139C397.829 248.139 397.191 247.935 396.664 247.528C396.137 247.117 395.734 246.522 395.456 245.743C395.178 244.961 395.038 244.016 395.038 242.909C395.038 241.809 395.178 240.869 395.456 240.09C395.738 239.308 396.142 238.711 396.669 238.3C397.199 237.886 397.836 237.679 398.578 237.679C399.321 237.679 399.955 237.886 400.482 238.3C401.013 238.711 401.417 239.308 401.695 240.09C401.977 240.869 402.118 241.809 402.118 242.909C402.118 244.016 401.979 244.961 401.7 245.743C401.422 246.522 401.019 247.117 400.492 247.528C399.965 247.935 399.327 248.139 398.578 248.139ZM398.578 247.045C399.321 247.045 399.897 246.687 400.308 245.972C400.719 245.256 400.925 244.235 400.925 242.909C400.925 242.027 400.83 241.277 400.641 240.657C400.456 240.037 400.187 239.565 399.836 239.24C399.488 238.915 399.069 238.753 398.578 238.753C397.842 238.753 397.267 239.116 396.853 239.842C396.439 240.564 396.232 241.587 396.232 242.909C396.232 243.791 396.324 244.54 396.51 245.156C396.696 245.773 396.962 246.242 397.31 246.563C397.662 246.885 398.084 247.045 398.578 247.045ZM404.186 237.818H405.658L409.118 246.27H409.237L412.697 237.818H414.169V248H413.016V240.264H412.916L409.734 248H408.621L405.439 240.264H405.339V248H404.186V237.818ZM420.857 242.362V243.456H416.403V242.362H420.857ZM425.904 249.273V236.545H426.72V249.273H425.904ZM428.649 240.364C428.589 239.86 428.347 239.469 427.923 239.19C427.499 238.912 426.978 238.773 426.362 238.773C425.911 238.773 425.517 238.846 425.179 238.991C424.844 239.137 424.582 239.338 424.393 239.593C424.208 239.848 424.115 240.138 424.115 240.463C424.115 240.735 424.179 240.969 424.309 241.164C424.441 241.356 424.61 241.517 424.816 241.646C425.021 241.772 425.237 241.877 425.462 241.96C425.687 242.039 425.895 242.104 426.083 242.153L427.118 242.432C427.383 242.501 427.678 242.598 428.002 242.72C428.331 242.843 428.644 243.01 428.942 243.222C429.244 243.431 429.492 243.7 429.688 244.028C429.883 244.356 429.981 244.759 429.981 245.236C429.981 245.786 429.837 246.283 429.549 246.727C429.264 247.171 428.846 247.524 428.296 247.786C427.749 248.048 427.084 248.179 426.302 248.179C425.573 248.179 424.942 248.061 424.408 247.826C423.878 247.591 423.46 247.263 423.155 246.842C422.854 246.421 422.683 245.932 422.643 245.375H423.916C423.949 245.759 424.078 246.078 424.304 246.33C424.532 246.578 424.821 246.764 425.169 246.886C425.52 247.006 425.898 247.065 426.302 247.065C426.773 247.065 427.195 246.989 427.57 246.837C427.944 246.681 428.241 246.465 428.46 246.19C428.679 245.912 428.788 245.587 428.788 245.216C428.788 244.878 428.694 244.603 428.505 244.391C428.316 244.179 428.067 244.006 427.759 243.874C427.451 243.741 427.118 243.625 426.76 243.526L425.507 243.168C424.711 242.939 424.082 242.612 423.618 242.188C423.154 241.764 422.922 241.209 422.922 240.523C422.922 239.953 423.076 239.455 423.384 239.031C423.695 238.604 424.113 238.272 424.637 238.037C425.164 237.798 425.752 237.679 426.402 237.679C427.058 237.679 427.641 237.797 428.152 238.032C428.662 238.264 429.066 238.582 429.365 238.987C429.666 239.391 429.825 239.85 429.842 240.364H428.649ZM435.011 248.139C434.428 248.139 433.903 248.023 433.435 247.791C432.968 247.559 432.593 247.241 432.312 246.837C432.03 246.432 431.876 245.972 431.849 245.455H433.042C433.089 245.915 433.298 246.296 433.669 246.598C434.043 246.896 434.491 247.045 435.011 247.045C435.429 247.045 435.8 246.948 436.125 246.752C436.453 246.557 436.71 246.288 436.895 245.947C437.084 245.602 437.179 245.213 437.179 244.778C437.179 244.334 437.081 243.938 436.885 243.59C436.693 243.239 436.428 242.962 436.09 242.76C435.752 242.558 435.366 242.455 434.932 242.452C434.62 242.448 434.3 242.496 433.972 242.596C433.644 242.692 433.374 242.816 433.162 242.969L432.008 242.83L432.625 237.818H437.915V238.912H433.659L433.301 241.915H433.361C433.569 241.749 433.831 241.612 434.146 241.502C434.461 241.393 434.789 241.338 435.131 241.338C435.754 241.338 436.309 241.487 436.796 241.786C437.287 242.08 437.671 242.485 437.949 242.999C438.231 243.512 438.372 244.099 438.372 244.759C438.372 245.408 438.226 245.988 437.934 246.499C437.646 247.006 437.248 247.407 436.741 247.702C436.234 247.993 435.657 248.139 435.011 248.139ZM440.665 248L445.219 238.991V238.912H439.969V237.818H446.492V238.972L441.958 248H440.665ZM447.47 248.08C447.225 248.08 447.014 247.992 446.839 247.816C446.663 247.64 446.575 247.43 446.575 247.185C446.575 246.939 446.663 246.729 446.839 246.553C447.014 246.378 447.225 246.29 447.47 246.29C447.715 246.29 447.926 246.378 448.101 246.553C448.277 246.729 448.365 246.939 448.365 247.185C448.365 247.347 448.323 247.496 448.241 247.632C448.161 247.768 448.053 247.877 447.917 247.96C447.785 248.04 447.636 248.08 447.47 248.08ZM453.596 237.679C454.014 237.682 454.431 237.762 454.849 237.918C455.267 238.073 455.648 238.332 455.993 238.693C456.337 239.051 456.614 239.54 456.823 240.16C457.032 240.78 457.136 241.557 457.136 242.491C457.136 243.396 457.05 244.2 456.877 244.903C456.708 245.602 456.463 246.192 456.142 246.673C455.824 247.153 455.436 247.518 454.978 247.766C454.524 248.015 454.011 248.139 453.437 248.139C452.867 248.139 452.358 248.027 451.911 247.801C451.467 247.572 451.102 247.256 450.817 246.852C450.535 246.444 450.355 245.972 450.275 245.435H451.488C451.598 245.902 451.815 246.288 452.14 246.593C452.468 246.895 452.9 247.045 453.437 247.045C454.223 247.045 454.842 246.702 455.297 246.016C455.754 245.33 455.983 244.361 455.983 243.108H455.903C455.717 243.386 455.497 243.627 455.242 243.829C454.987 244.031 454.703 244.187 454.392 244.296C454.08 244.406 453.749 244.46 453.397 244.46C452.814 244.46 452.279 244.316 451.792 244.028C451.308 243.736 450.92 243.337 450.628 242.83C450.34 242.319 450.196 241.736 450.196 241.08C450.196 240.456 450.335 239.886 450.613 239.369C450.895 238.849 451.289 238.435 451.797 238.126C452.307 237.818 452.907 237.669 453.596 237.679ZM453.596 238.773C453.179 238.773 452.802 238.877 452.468 239.086C452.136 239.291 451.873 239.57 451.677 239.921C451.485 240.269 451.389 240.655 451.389 241.08C451.389 241.504 451.482 241.89 451.667 242.238C451.856 242.583 452.113 242.858 452.438 243.063C452.766 243.265 453.139 243.366 453.556 243.366C453.871 243.366 454.165 243.305 454.436 243.183C454.708 243.057 454.945 242.886 455.147 242.67C455.353 242.452 455.514 242.205 455.63 241.93C455.746 241.651 455.804 241.361 455.804 241.06C455.804 240.662 455.708 240.289 455.515 239.941C455.326 239.593 455.065 239.311 454.73 239.096C454.398 238.88 454.02 238.773 453.596 238.773ZM459.27 237.818H460.742L464.202 246.27H464.321L467.781 237.818H469.253V248H468.1V240.264H468L464.818 248H463.705L460.523 240.264H460.423V248H459.27V237.818Z" fill="black"/>
<g clip-path="url(#clip2_362_549)">
<path d="M504 238.933C504.774 238.933 505.4 239.56 505.4 240.333C505.4 241.107 504.774 241.733 504 241.733C503.227 241.733 502.6 241.107 502.6 240.333C502.6 239.56 503.227 238.933 504 238.933ZM504 244.933C505.98 244.933 508.067 245.907 508.067 246.333V247.067H499.934V246.333C499.934 245.907 502.02 244.933 504 244.933ZM504 237.667C502.527 237.667 501.334 238.86 501.334 240.333C501.334 241.807 502.527 243 504 243C505.474 243 506.667 241.807 506.667 240.333C506.667 238.86 505.474 237.667 504 237.667ZM504 243.667C502.22 243.667 498.667 244.56 498.667 246.333V248.333H509.334V246.333C509.334 244.56 505.78 243.667 504 243.667Z" fill="black"/>
</g>
<path d="M520.236 248.139C519.652 248.139 519.127 248.023 518.66 247.791C518.192 247.559 517.818 247.241 517.536 246.837C517.254 246.432 517.1 245.972 517.074 245.455H518.267C518.313 245.915 518.522 246.296 518.893 246.598C519.268 246.896 519.715 247.045 520.236 247.045C520.653 247.045 521.025 246.948 521.349 246.752C521.678 246.557 521.934 246.288 522.12 245.947C522.309 245.602 522.403 245.213 522.403 244.778C522.403 244.334 522.306 243.938 522.11 243.59C521.918 243.239 521.653 242.962 521.315 242.76C520.977 242.558 520.59 242.455 520.156 242.452C519.845 242.448 519.525 242.496 519.197 242.596C518.869 242.692 518.598 242.816 518.386 242.969L517.233 242.83L517.849 237.818H523.139V238.912H518.884L518.526 241.915H518.585C518.794 241.749 519.056 241.612 519.371 241.502C519.686 241.393 520.014 241.338 520.355 241.338C520.978 241.338 521.533 241.487 522.021 241.786C522.511 242.08 522.896 242.485 523.174 242.999C523.456 243.512 523.597 244.099 523.597 244.759C523.597 245.408 523.451 245.988 523.159 246.499C522.871 247.006 522.473 247.407 521.966 247.702C521.459 247.993 520.882 248.139 520.236 248.139Z" fill="black"/>
</g>
<g filter="url(#filter3_d_362_549)">
<path d="M343 283C343 278.582 346.582 275 351 275H540C544.418 275 548 278.582 548 283V315C548 319.418 544.418 323 540 323H351C346.582 323 343 319.418 343 315V283Z" fill="white" shape-rendering="crispEdges"/>
<path d="M369.057 305.273V292.545H369.872V305.273H369.057ZM371.801 296.364C371.741 295.86 371.5 295.469 371.075 295.19C370.651 294.912 370.131 294.773 369.514 294.773C369.063 294.773 368.669 294.846 368.331 294.991C367.996 295.137 367.734 295.338 367.545 295.593C367.36 295.848 367.267 296.138 367.267 296.463C367.267 296.735 367.332 296.969 367.461 297.164C367.594 297.356 367.763 297.517 367.968 297.646C368.174 297.772 368.389 297.877 368.614 297.96C368.84 298.039 369.047 298.104 369.236 298.153L370.27 298.432C370.535 298.501 370.83 298.598 371.155 298.72C371.483 298.843 371.796 299.01 372.094 299.222C372.396 299.431 372.645 299.7 372.84 300.028C373.036 300.356 373.134 300.759 373.134 301.236C373.134 301.786 372.989 302.283 372.701 302.727C372.416 303.171 371.998 303.524 371.448 303.786C370.901 304.048 370.237 304.179 369.455 304.179C368.725 304.179 368.094 304.061 367.56 303.826C367.03 303.591 366.612 303.263 366.308 302.842C366.006 302.421 365.835 301.932 365.795 301.375H367.068C367.101 301.759 367.231 302.078 367.456 302.33C367.685 302.578 367.973 302.764 368.321 302.886C368.672 303.006 369.05 303.065 369.455 303.065C369.925 303.065 370.348 302.989 370.722 302.837C371.097 302.681 371.393 302.465 371.612 302.19C371.831 301.912 371.94 301.587 371.94 301.216C371.94 300.878 371.846 300.603 371.657 300.391C371.468 300.179 371.219 300.006 370.911 299.874C370.603 299.741 370.27 299.625 369.912 299.526L368.659 299.168C367.864 298.939 367.234 298.612 366.77 298.188C366.306 297.764 366.074 297.209 366.074 296.523C366.074 295.953 366.228 295.455 366.536 295.031C366.848 294.604 367.265 294.272 367.789 294.037C368.316 293.798 368.904 293.679 369.554 293.679C370.21 293.679 370.794 293.797 371.304 294.032C371.814 294.264 372.219 294.582 372.517 294.987C372.819 295.391 372.978 295.85 372.994 296.364H371.801ZM378.164 304.139C377.58 304.139 377.055 304.023 376.588 303.791C376.12 303.559 375.746 303.241 375.464 302.837C375.182 302.432 375.028 301.972 375.002 301.455H376.195C376.241 301.915 376.45 302.296 376.821 302.598C377.196 302.896 377.643 303.045 378.164 303.045C378.581 303.045 378.952 302.948 379.277 302.752C379.605 302.557 379.862 302.288 380.048 301.947C380.237 301.602 380.331 301.213 380.331 300.778C380.331 300.334 380.233 299.938 380.038 299.59C379.846 299.239 379.58 298.962 379.242 298.76C378.904 298.558 378.518 298.455 378.084 298.452C377.772 298.448 377.453 298.496 377.124 298.596C376.796 298.692 376.526 298.816 376.314 298.969L375.161 298.83L375.777 293.818H381.067V294.912H376.811L376.453 297.915H376.513C376.722 297.749 376.984 297.612 377.298 297.502C377.613 297.393 377.941 297.338 378.283 297.338C378.906 297.338 379.461 297.487 379.948 297.786C380.439 298.08 380.823 298.485 381.102 298.999C381.383 299.512 381.524 300.099 381.524 300.759C381.524 301.408 381.378 301.988 381.087 302.499C380.798 303.006 380.401 303.407 379.894 303.702C379.387 303.993 378.81 304.139 378.164 304.139ZM383.261 301.912V300.898L387.735 293.818H388.471V295.389H387.974L384.593 300.739V300.818H390.619V301.912H383.261ZM388.053 304V301.604V301.131V293.818H389.227V304H388.053ZM392.878 304.08C392.633 304.08 392.422 303.992 392.247 303.816C392.071 303.64 391.983 303.43 391.983 303.185C391.983 302.939 392.071 302.729 392.247 302.553C392.422 302.378 392.633 302.29 392.878 302.29C393.123 302.29 393.334 302.378 393.51 302.553C393.685 302.729 393.773 302.939 393.773 303.185C393.773 303.347 393.732 303.496 393.649 303.632C393.569 303.768 393.462 303.877 393.326 303.96C393.193 304.04 393.044 304.08 392.878 304.08ZM398.824 304.139C398.075 304.139 397.437 303.935 396.91 303.528C396.383 303.117 395.98 302.522 395.702 301.743C395.424 300.961 395.284 300.016 395.284 298.909C395.284 297.809 395.424 296.869 395.702 296.09C395.984 295.308 396.388 294.711 396.915 294.3C397.445 293.886 398.082 293.679 398.824 293.679C399.567 293.679 400.201 293.886 400.728 294.3C401.259 294.711 401.663 295.308 401.941 296.09C402.223 296.869 402.364 297.809 402.364 298.909C402.364 300.016 402.225 300.961 401.946 301.743C401.668 302.522 401.265 303.117 400.738 303.528C400.211 303.935 399.573 304.139 398.824 304.139ZM398.824 303.045C399.567 303.045 400.143 302.687 400.554 301.972C400.965 301.256 401.171 300.235 401.171 298.909C401.171 298.027 401.076 297.277 400.887 296.657C400.702 296.037 400.433 295.565 400.082 295.24C399.734 294.915 399.315 294.753 398.824 294.753C398.088 294.753 397.513 295.116 397.099 295.842C396.685 296.564 396.478 297.587 396.478 298.909C396.478 299.791 396.57 300.54 396.756 301.156C396.942 301.773 397.208 302.242 397.556 302.563C397.908 302.885 398.33 303.045 398.824 303.045ZM408.648 298.362V299.456H404.194V298.362H408.648ZM413.695 305.273V292.545H414.511V305.273H413.695ZM416.44 296.364C416.38 295.86 416.138 295.469 415.714 295.19C415.29 294.912 414.769 294.773 414.153 294.773C413.702 294.773 413.308 294.846 412.97 294.991C412.635 295.137 412.373 295.338 412.184 295.593C411.999 295.848 411.906 296.138 411.906 296.463C411.906 296.735 411.97 296.969 412.1 297.164C412.232 297.356 412.401 297.517 412.607 297.646C412.812 297.772 413.028 297.877 413.253 297.96C413.478 298.039 413.686 298.104 413.874 298.153L414.909 298.432C415.174 298.501 415.469 298.598 415.794 298.72C416.122 298.843 416.435 299.01 416.733 299.222C417.035 299.431 417.283 299.7 417.479 300.028C417.674 300.356 417.772 300.759 417.772 301.236C417.772 301.786 417.628 302.283 417.34 302.727C417.055 303.171 416.637 303.524 416.087 303.786C415.54 304.048 414.875 304.179 414.093 304.179C413.364 304.179 412.733 304.061 412.199 303.826C411.669 303.591 411.251 303.263 410.946 302.842C410.645 302.421 410.474 301.932 410.434 301.375H411.707C411.74 301.759 411.869 302.078 412.095 302.33C412.323 302.578 412.612 302.764 412.96 302.886C413.311 303.006 413.689 303.065 414.093 303.065C414.564 303.065 414.986 302.989 415.361 302.837C415.735 302.681 416.032 302.465 416.251 302.19C416.47 301.912 416.579 301.587 416.579 301.216C416.579 300.878 416.485 300.603 416.296 300.391C416.107 300.179 415.858 300.006 415.55 299.874C415.242 299.741 414.909 299.625 414.551 299.526L413.298 299.168C412.502 298.939 411.873 298.612 411.409 298.188C410.945 297.764 410.713 297.209 410.713 296.523C410.713 295.953 410.867 295.455 411.175 295.031C411.486 294.604 411.904 294.272 412.428 294.037C412.955 293.798 413.543 293.679 414.193 293.679C414.849 293.679 415.432 293.797 415.943 294.032C416.453 294.264 416.857 294.582 417.156 294.987C417.457 295.391 417.616 295.85 417.633 296.364H416.44ZM422.802 304.139C422.219 304.139 421.694 304.023 421.226 303.791C420.759 303.559 420.384 303.241 420.103 302.837C419.821 302.432 419.667 301.972 419.64 301.455H420.833C420.88 301.915 421.089 302.296 421.46 302.598C421.834 302.896 422.282 303.045 422.802 303.045C423.22 303.045 423.591 302.948 423.916 302.752C424.244 302.557 424.501 302.288 424.686 301.947C424.875 301.602 424.97 301.213 424.97 300.778C424.97 300.334 424.872 299.938 424.676 299.59C424.484 299.239 424.219 298.962 423.881 298.76C423.543 298.558 423.157 298.455 422.723 298.452C422.411 298.448 422.091 298.496 421.763 298.596C421.435 298.692 421.165 298.816 420.953 298.969L419.799 298.83L420.416 293.818H425.706V294.912H421.45L421.092 297.915H421.152C421.36 297.749 421.622 297.612 421.937 297.502C422.252 297.393 422.58 297.338 422.922 297.338C423.545 297.338 424.1 297.487 424.587 297.786C425.078 298.08 425.462 298.485 425.74 298.999C426.022 299.512 426.163 300.099 426.163 300.759C426.163 301.408 426.017 301.988 425.725 302.499C425.437 303.006 425.039 303.407 424.532 303.702C424.025 303.993 423.449 304.139 422.802 304.139ZM431.32 304.139C430.736 304.139 430.211 304.023 429.744 303.791C429.276 303.559 428.902 303.241 428.62 302.837C428.338 302.432 428.184 301.972 428.158 301.455H429.351C429.397 301.915 429.606 302.296 429.977 302.598C430.352 302.896 430.799 303.045 431.32 303.045C431.737 303.045 432.109 302.948 432.433 302.752C432.762 302.557 433.018 302.288 433.204 301.947C433.393 301.602 433.487 301.213 433.487 300.778C433.487 300.334 433.39 299.938 433.194 299.59C433.002 299.239 432.737 298.962 432.399 298.76C432.061 298.558 431.674 298.455 431.24 298.452C430.929 298.448 430.609 298.496 430.281 298.596C429.953 298.692 429.682 298.816 429.47 298.969L428.317 298.83L428.933 293.818H434.223V294.912H429.968L429.61 297.915H429.669C429.878 297.749 430.14 297.612 430.455 297.502C430.77 297.393 431.098 297.338 431.439 297.338C432.062 297.338 432.617 297.487 433.105 297.786C433.595 298.08 433.98 298.485 434.258 298.999C434.54 299.512 434.681 300.099 434.681 300.759C434.681 301.408 434.535 301.988 434.243 302.499C433.955 303.006 433.557 303.407 433.05 303.702C432.543 303.993 431.966 304.139 431.32 304.139ZM437.148 304.08C436.902 304.08 436.692 303.992 436.516 303.816C436.341 303.64 436.253 303.43 436.253 303.185C436.253 302.939 436.341 302.729 436.516 302.553C436.692 302.378 436.902 302.29 437.148 302.29C437.393 302.29 437.603 302.378 437.779 302.553C437.955 302.729 438.043 302.939 438.043 303.185C438.043 303.347 438.001 303.496 437.918 303.632C437.839 303.768 437.731 303.877 437.595 303.96C437.463 304.04 437.313 304.08 437.148 304.08ZM443.274 293.679C443.692 293.682 444.109 293.762 444.527 293.918C444.944 294.073 445.326 294.332 445.67 294.693C446.015 295.051 446.292 295.54 446.501 296.16C446.709 296.78 446.814 297.557 446.814 298.491C446.814 299.396 446.728 300.2 446.555 300.903C446.386 301.602 446.141 302.192 445.819 302.673C445.501 303.153 445.113 303.518 444.656 303.766C444.202 304.015 443.688 304.139 443.115 304.139C442.545 304.139 442.036 304.027 441.589 303.801C441.144 303.572 440.78 303.256 440.495 302.852C440.213 302.444 440.032 301.972 439.953 301.435H441.166C441.275 301.902 441.492 302.288 441.817 302.593C442.145 302.895 442.578 303.045 443.115 303.045C443.9 303.045 444.52 302.702 444.974 302.016C445.432 301.33 445.66 300.361 445.66 299.108H445.581C445.395 299.386 445.175 299.627 444.92 299.829C444.664 300.031 444.381 300.187 444.069 300.296C443.758 300.406 443.426 300.46 443.075 300.46C442.492 300.46 441.956 300.316 441.469 300.028C440.985 299.736 440.598 299.337 440.306 298.83C440.018 298.319 439.873 297.736 439.873 297.08C439.873 296.456 440.013 295.886 440.291 295.369C440.573 294.849 440.967 294.435 441.474 294.126C441.985 293.818 442.585 293.669 443.274 293.679ZM443.274 294.773C442.856 294.773 442.48 294.877 442.145 295.086C441.814 295.291 441.55 295.57 441.355 295.921C441.163 296.269 441.067 296.655 441.067 297.08C441.067 297.504 441.159 297.89 441.345 298.238C441.534 298.583 441.791 298.858 442.116 299.063C442.444 299.265 442.817 299.366 443.234 299.366C443.549 299.366 443.842 299.305 444.114 299.183C444.386 299.057 444.623 298.886 444.825 298.67C445.031 298.452 445.191 298.205 445.307 297.93C445.423 297.651 445.481 297.361 445.481 297.06C445.481 296.662 445.385 296.289 445.193 295.941C445.004 295.593 444.742 295.311 444.407 295.096C444.076 294.88 443.698 294.773 443.274 294.773ZM448.948 293.818H450.419L453.88 302.27H453.999L457.459 293.818H458.931V304H457.777V296.264H457.678L454.496 304H453.382L450.201 296.264H450.101V304H448.948V293.818Z" fill="black"/>
<g clip-path="url(#clip3_362_549)">
<path d="M504 294.933C504.774 294.933 505.4 295.56 505.4 296.333C505.4 297.107 504.774 297.733 504 297.733C503.227 297.733 502.6 297.107 502.6 296.333C502.6 295.56 503.227 294.933 504 294.933ZM504 300.933C505.98 300.933 508.067 301.907 508.067 302.333V303.067H499.934V302.333C499.934 301.907 502.02 300.933 504 300.933ZM504 293.667C502.527 293.667 501.334 294.86 501.334 296.333C501.334 297.807 502.527 299 504 299C505.474 299 506.667 297.807 506.667 296.333C506.667 294.86 505.474 293.667 504 293.667ZM504 299.667C502.22 299.667 498.667 300.56 498.667 302.333V304.333H509.334V302.333C509.334 300.56 505.78 299.667 504 299.667Z" fill="black"/>
</g>
<path d="M520.494 304.139C519.838 304.139 519.253 304.027 518.739 303.801C518.229 303.576 517.823 303.263 517.521 302.862C517.223 302.457 517.061 301.988 517.034 301.455H518.287C518.313 301.783 518.426 302.066 518.625 302.305C518.824 302.54 519.084 302.722 519.406 302.852C519.727 302.981 520.083 303.045 520.474 303.045C520.912 303.045 521.3 302.969 521.638 302.817C521.976 302.664 522.241 302.452 522.433 302.18C522.625 301.909 522.722 301.594 522.722 301.236C522.722 300.861 522.629 300.531 522.443 300.246C522.258 299.958 521.986 299.733 521.628 299.57C521.27 299.408 520.832 299.327 520.315 299.327H519.5V298.233H520.315C520.72 298.233 521.074 298.16 521.379 298.014C521.688 297.868 521.928 297.663 522.1 297.398C522.276 297.133 522.364 296.821 522.364 296.463C522.364 296.118 522.287 295.818 522.135 295.563C521.982 295.308 521.767 295.109 521.489 294.967C521.214 294.824 520.889 294.753 520.514 294.753C520.163 294.753 519.831 294.817 519.52 294.947C519.212 295.073 518.96 295.257 518.764 295.499C518.569 295.737 518.463 296.026 518.446 296.364H517.253C517.273 295.83 517.433 295.363 517.735 294.962C518.037 294.557 518.431 294.242 518.918 294.017C519.409 293.792 519.947 293.679 520.534 293.679C521.164 293.679 521.704 293.807 522.155 294.062C522.606 294.314 522.952 294.647 523.194 295.061C523.436 295.475 523.557 295.923 523.557 296.403C523.557 296.977 523.406 297.466 523.104 297.87C522.806 298.274 522.4 298.554 521.886 298.71V298.79C522.529 298.896 523.031 299.169 523.393 299.61C523.754 300.048 523.935 300.589 523.935 301.236C523.935 301.789 523.784 302.286 523.482 302.727C523.184 303.165 522.776 303.509 522.259 303.761C521.742 304.013 521.154 304.139 520.494 304.139Z" fill="black"/>
</g>
<path d="M284.5 147L284.5 280.5C284.667 286.5 288.5 298.5 302.5 298.5C316.5 298.5 337 298.5 343 298.5" stroke="#7BB9FF" stroke-width="3"/>
<path d="M342.5 242.5H284.5" stroke="#7BB9FF" stroke-width="3"/>
<path d="M342.5 187H284.5" stroke="#7BB9FF" stroke-width="3"/>
<rect x="286" y="177" width="3" height="30" transform="rotate(180 286 177)" fill="url(#paint1_linear_362_549)"/>
<rect x="286" y="275" width="3" height="30" transform="rotate(180 286 275)" fill="url(#paint2_linear_362_549)"/>
</g>
<defs>
<filter id="filter0_d_362_549" x="216" y="99" width="336" height="56" filterUnits="userSpaceOnUse" color-interpolation-filters="sRGB">
<feFlood flood-opacity="0" result="BackgroundImageFix"/>
<feColorMatrix in="SourceAlpha" type="matrix" values="0 0 0 0 0 0 0 0 0 0 0 0 0 0 0 0 0 0 127 0" result="hardAlpha"/>
<feOffset dy="4"/>
<feGaussianBlur stdDeviation="2"/>
<feComposite in2="hardAlpha" operator="out"/>
<feColorMatrix type="matrix" values="0 0 0 0 0.333129 0 0 0 0 0.652275 0 0 0 0 1 0 0 0 0.71 0"/>
<feBlend mode="normal" in2="BackgroundImageFix" result="effect1_dropShadow_362_549"/>
<feBlend mode="normal" in="SourceGraphic" in2="effect1_dropShadow_362_549" result="shape"/>
</filter>
<filter id="filter1_d_362_549" x="339" y="163" width="213" height="56" filterUnits="userSpaceOnUse" color-interpolation-filters="sRGB">
<feFlood flood-opacity="0" result="BackgroundImageFix"/>
<feColorMatrix in="SourceAlpha" type="matrix" values="0 0 0 0 0 0 0 0 0 0 0 0 0 0 0 0 0 0 127 0" result="hardAlpha"/>
<feOffset dy="4"/>
<feGaussianBlur stdDeviation="2"/>
<feComposite in2="hardAlpha" operator="out"/>
<feColorMatrix type="matrix" values="0 0 0 0 0.298036 0 0 0 0 0.622019 0 0 0 0 1 0 0 0 1 0"/>
<feBlend mode="normal" in2="BackgroundImageFix" result="effect1_dropShadow_362_549"/>
<feBlend mode="normal" in="SourceGraphic" in2="effect1_dropShadow_362_549" result="shape"/>
</filter>
<filter id="filter2_d_362_549" x="339" y="219" width="213" height="56" filterUnits="userSpaceOnUse" color-interpolation-filters="sRGB">
<feFlood flood-opacity="0" result="BackgroundImageFix"/>
<feColorMatrix in="SourceAlpha" type="matrix" values="0 0 0 0 0 0 0 0 0 0 0 0 0 0 0 0 0 0 127 0" result="hardAlpha"/>
<feOffset dy="4"/>
<feGaussianBlur stdDeviation="2"/>
<feComposite in2="hardAlpha" operator="out"/>
<feColorMatrix type="matrix" values="0 0 0 0 0.298036 0 0 0 0 0.622019 0 0 0 0 1 0 0 0 1 0"/>
<feBlend mode="normal" in2="BackgroundImageFix" result="effect1_dropShadow_362_549"/>
<feBlend mode="normal" in="SourceGraphic" in2="effect1_dropShadow_362_549" result="shape"/>
</filter>
<filter id="filter3_d_362_549" x="339" y="275" width="213" height="56" filterUnits="userSpaceOnUse" color-interpolation-filters="sRGB">
<feFlood flood-opacity="0" result="BackgroundImageFix"/>
<feColorMatrix in="SourceAlpha" type="matrix" values="0 0 0 0 0 0 0 0 0 0 0 0 0 0 0 0 0 0 127 0" result="hardAlpha"/>
<feOffset dy="4"/>
<feGaussianBlur stdDeviation="2"/>
<feComposite in2="hardAlpha" operator="out"/>
<feColorMatrix type="matrix" values="0 0 0 0 0.298036 0 0 0 0 0.622019 0 0 0 0 1 0 0 0 1 0"/>
<feBlend mode="normal" in2="BackgroundImageFix" result="effect1_dropShadow_362_549"/>
<feBlend mode="normal" in="SourceGraphic" in2="effect1_dropShadow_362_549" result="shape"/>
</filter>
<linearGradient id="paint0_linear_362_549" x1="1710" y1="336" x2="911" y2="797.5" gradientUnits="userSpaceOnUse">
<stop stop-color="#2A8CE8"/>
<stop offset="0.139423" stop-color="#46A2F4"/>
<stop offset="0.322115" stop-color="#72B4FD"/>
<stop offset="0.485577" stop-color="#76B2F6"/>
<stop offset="0.639423" stop-color="#77AFEC"/>
<stop offset="0.778846" stop-color="#97B9EC"/>
<stop offset="1" stop-color="#CFDEF4"/>
</linearGradient>
<linearGradient id="paint1_linear_362_549" x1="287.5" y1="177" x2="287.5" y2="207" gradientUnits="userSpaceOnUse">
<stop stop-color="#74B3FC"/>
<stop offset="0.644231" stop-color="#9BCAFF"/>
<stop offset="1" stop-color="#74B3FC"/>
</linearGradient>
<linearGradient id="paint2_linear_362_549" x1="287.5" y1="275" x2="287.5" y2="305" gradientUnits="userSpaceOnUse">
<stop stop-color="#74B3FC"/>
<stop offset="0.644231" stop-color="#9BCAFF"/>
<stop offset="1" stop-color="#74B3FC"/>
</linearGradient>
<clipPath id="clip0_362_549">
<rect width="787" height="379" rx="8" fill="white"/>
</clipPath>
<clipPath id="clip1_362_549">
<rect width="16" height="16" fill="white" transform="translate(496 179)"/>
</clipPath>
<clipPath id="clip2_362_549">
<rect width="16" height="16" fill="white" transform="translate(496 235)"/>
</clipPath>
<clipPath id="clip3_362_549">
<rect width="16" height="16" fill="white" transform="translate(496 291)"/>
</clipPath>
</defs>
</svg>
