<svg xmlns="http://www.w3.org/2000/svg" width="629" height="365" fill="none"><g filter="url(#a)"><path fill="#fff" d="M20 166.218c0-8.836 7.163-16 16-16h557c8.837 0 16 7.164 16 16v221.795H20z"/></g><circle cx="50" cy="234.218" r="8" fill="#b4ccff"/><rect width="106" height="7" x="68" y="230.718" fill="#e8eae7" rx="3.5"/><rect width="132" height="7" x="249" y="230.718" fill="#e8eae7" rx="3.5"/><rect width="132" height="7" x="456" y="230.718" fill="#e8eae7" rx="3.5"/><circle cx="50" cy="279.218" r="8" fill="#e4ecff"/><rect width="106" height="7" x="68" y="275.718" fill="#e8eae7" rx="3.5"/><rect width="132" height="7" x="249" y="275.718" fill="#e8eae7" rx="3.5"/><rect width="132" height="7" x="456" y="275.718" fill="#e8eae7" rx="3.5"/><circle cx="50" cy="324.218" r="8" fill="#aac4fc"/><rect width="106" height="7" x="68" y="320.718" fill="#e8eae7" rx="3.5"/><rect width="132" height="7" x="249" y="320.718" fill="#e8eae7" rx="3.5"/><rect width="132" height="7" x="456" y="320.718" fill="#e8eae7" rx="3.5"/><mask id="b" fill="#fff"><path d="M107 135.218c0-13.255 10.745-24 24-24h367c13.255 0 24 10.745 24 24v35H107z"/></mask><path fill="#47a2f1" d="M104 135.218c0-14.911 12.088-27 27-27h367c14.912 0 27 12.089 27 27h-6c0-11.598-9.402-21-21-21H131c-11.598 0-21 9.402-21 21zm418 35H107zm-418 0v-35c0-14.911 12.088-27 27-27v6c-11.598 0-21 9.402-21 21v35zm394-62c14.912 0 27 12.089 27 27v35h-6v-35c0-11.598-9.402-21-21-21z" mask="url(#b)"/><path fill="#4d91d1" d="M315.561 71.158a1.5 1.5 0 0 0-2.122 0l-9.546 9.546a1.5 1.5 0 0 0 2.122 2.121l8.485-8.485 8.485 8.485a1.5 1.5 0 0 0 2.122-2.121zm-1.061 100.06h1.5v-99h-3v99z"/><path fill="url(#c)" d="M174 114.218h3v65h-3z" transform="rotate(-90 174 114.218)"/><path fill="url(#d)" d="M391 114.218h3v65h-3z" transform="rotate(-90 391 114.218)"/><path fill="url(#e)" d="M316 151.218h3v30h-3z" transform="rotate(180 316 151.218)"/><g filter="url(#f)"><path fill="#fefefe" d="M341.5 19.22v42.154a5.915 5.915 0 0 1-5.915 5.915h-40.67A5.915 5.915 0 0 1 289 61.373V8.133a5.915 5.915 0 0 1 5.915-5.915h29.584z"/><g filter="url(#g)"><path fill="#f3efef" d="m324.493 2.218 9.243 9.243 7.764 7.764h-11.091a5.916 5.916 0 0 1-5.916-5.915z"/></g><path stroke="#cfcfcf" stroke-linecap="round" stroke-width="2.218" d="M295.655 14.05h17.007M295.655 19.225h17.007M295.655 53.979h39.19M295.655 48.803h39.19M295.655 59.155h39.19"/><rect width="43" height="22" x="315" y="23.218" fill="#00da16" rx="4"/><path fill="#fff" d="m327.017 29.991 2.25 3.63h.069l2.25-3.63h1.244l-2.744 4.364 2.744 4.363h-1.244l-2.25-3.562h-.069l-2.25 3.562h-1.244l2.813-4.363-2.813-4.364zm7.188 8.727v-8.727h1.057v7.79h4.057v.937zm11.523-6.545a1.34 1.34 0 0 0-.622-1.006q-.546-.358-1.338-.358-.58 0-1.014.188a1.6 1.6 0 0 0-.674.515 1.24 1.24 0 0 0-.238.746q0 .35.166.6.17.248.434.414.265.162.554.269.29.102.533.166l.886.239q.342.09.759.247.422.157.805.43.388.27.64.69.25.423.251 1.036 0 .708-.371 1.278-.366.572-1.074.908-.702.337-1.708.337-.938 0-1.624-.303a2.6 2.6 0 0 1-1.074-.844 2.4 2.4 0 0 1-.439-1.257h1.091q.043.494.333.818a1.8 1.8 0 0 0 .741.478q.452.153.972.153.605 0 1.086-.196.482-.2.763-.554a1.3 1.3 0 0 0 .281-.835q0-.435-.243-.708a1.8 1.8 0 0 0-.639-.443 7 7 0 0 0-.856-.298l-1.074-.307q-1.023-.294-1.62-.84-.596-.545-.596-1.427 0-.733.396-1.278.4-.55 1.074-.852a3.6 3.6 0 0 1 1.513-.307q.843 0 1.5.302a2.6 2.6 0 0 1 1.04.818q.387.52.409 1.18z"/></g><mask id="h" fill="#fff"><path d="M20 165.718c0-8.56 6.94-15.5 15.5-15.5h558c8.56 0 15.5 6.94 15.5 15.5v22.5H20z"/></mask><path fill="#f8f8f8" d="M20 165.718c0-8.56 6.94-15.5 15.5-15.5h558c8.56 0 15.5 6.94 15.5 15.5v22.5H20z"/><path fill="#f0f0f0" d="M20 150.218h589zm589 39H20v-2h589zm-589-1v-38zm589-38v38z" mask="url(#h)"/><rect width="132" height="7" x="42" y="165.218" fill="#e8eae7" rx="3.5"/><rect width="132" height="7" x="249" y="165.218" fill="#e8eae7" rx="3.5"/><rect width="132" height="7" x="456" y="165.218" fill="#e8eae7" rx="3.5"/><defs><linearGradient id="c" x1="175.5" x2="175.5" y1="114.218" y2="179.218" gradientUnits="userSpaceOnUse"><stop stop-color="#47a2f1"/><stop offset=".644" stop-color="#00d5ff" stop-opacity=".824"/><stop offset="1" stop-color="#47a2f1"/></linearGradient><linearGradient id="d" x1="392.5" x2="392.5" y1="114.218" y2="179.218" gradientUnits="userSpaceOnUse"><stop stop-color="#47a2f1"/><stop offset=".644" stop-color="#00d5ff" stop-opacity=".824"/><stop offset="1" stop-color="#47a2f1"/></linearGradient><linearGradient id="e" x1="317.5" x2="317.5" y1="151.218" y2="181.218" gradientUnits="userSpaceOnUse"><stop stop-color="#4d91d1"/><stop offset=".644" stop-color="#00d5ff" stop-opacity=".824"/><stop offset="1" stop-color="#4d91d1"/></linearGradient><filter id="a" width="629" height="277.795" x="0" y="134.218" color-interpolation-filters="sRGB" filterUnits="userSpaceOnUse"><feFlood flood-opacity="0" result="BackgroundImageFix"/><feColorMatrix in="SourceAlpha" result="hardAlpha" values="0 0 0 0 0 0 0 0 0 0 0 0 0 0 0 0 0 0 127 0"/><feOffset dy="4"/><feGaussianBlur stdDeviation="10"/><feComposite in2="hardAlpha" operator="out"/><feColorMatrix values="0 0 0 0 0.00742911 0 0 0 0 0.390635 0 0 0 0 0.733924 0 0 0 0.3 0"/><feBlend in2="BackgroundImageFix" result="effect1_dropShadow_1_2"/><feBlend in="SourceGraphic" in2="effect1_dropShadow_1_2" result="shape"/></filter><filter id="f" width="77" height="73.07" x="285" y="2.218" color-interpolation-filters="sRGB" filterUnits="userSpaceOnUse"><feFlood flood-opacity="0" result="BackgroundImageFix"/><feColorMatrix in="SourceAlpha" result="hardAlpha" values="0 0 0 0 0 0 0 0 0 0 0 0 0 0 0 0 0 0 127 0"/><feOffset dy="4"/><feGaussianBlur stdDeviation="2"/><feComposite in2="hardAlpha" operator="out"/><feColorMatrix values="0 0 0 0 0 0 0 0 0 0 0 0 0 0 0 0 0 0 0.05 0"/><feBlend in2="BackgroundImageFix" result="effect1_dropShadow_1_2"/><feBlend in="SourceGraphic" in2="effect1_dropShadow_1_2" result="shape"/></filter><filter id="g" width="22.922" height="22.923" x="321.535" y="0" color-interpolation-filters="sRGB" filterUnits="userSpaceOnUse"><feFlood flood-opacity="0" result="BackgroundImageFix"/><feColorMatrix in="SourceAlpha" result="hardAlpha" values="0 0 0 0 0 0 0 0 0 0 0 0 0 0 0 0 0 0 127 0"/><feOffset dy=".739"/><feGaussianBlur stdDeviation="1.479"/><feComposite in2="hardAlpha" operator="out"/><feColorMatrix values="0 0 0 0 0 0 0 0 0 0 0 0 0 0 0 0 0 0 0.17 0"/><feBlend in2="BackgroundImageFix" result="effect1_dropShadow_1_2"/><feBlend in="SourceGraphic" in2="effect1_dropShadow_1_2" result="shape"/></filter></defs></svg>